# Tiled2Unity generated file. Do not modify by hand.
# Wavefront file for 'HunkerMap1_mesh_0004.obj'

# Vertices (Count = 668)
v -29 -1 0
v -30 -1 0
v -30 0 0
v -29 0 0
v -28 -1 0
v -29 -1 0
v -29 0 0
v -28 0 0
v -29 -2 0
v -30 -2 0
v -30 -1 0
v -29 -1 0
v -28 -2 0
v -29 -2 0
v -29 -1 0
v -28 -1 0
v -14 -2 0
v -15 -2 0
v -15 -1 0
v -14 -1 0
v -5 -2 0
v -6 -2 0
v -6 -1 0
v -5 -1 0
v -3 -2 0
v -4 -2 0
v -4 -1 0
v -3 -1 0
v -35 -3 0
v -36 -3 0
v -36 -2 0
v -35 -2 0
v -29 -3 0
v -30 -3 0
v -30 -2 0
v -29 -2 0
v -28 -3 0
v -29 -3 0
v -29 -2 0
v -28 -2 0
v -16 -3 0
v -17 -3 0
v -17 -2 0
v -16 -2 0
v -15 -3 0
v -16 -3 0
v -16 -2 0
v -15 -2 0
v -4 -3 0
v -5 -3 0
v -5 -2 0
v -4 -2 0
v -3 -3 0
v -4 -3 0
v -4 -2 0
v -3 -2 0
v -2 -3 0
v -3 -3 0
v -3 -2 0
v -2 -2 0
v -29 -4 0
v -30 -4 0
v -30 -3 0
v -29 -3 0
v -28 -4 0
v -29 -4 0
v -29 -3 0
v -28 -3 0
v -16 -4 0
v -17 -4 0
v -17 -3 0
v -16 -3 0
v -15 -4 0
v -16 -4 0
v -16 -3 0
v -15 -3 0
v -7 -4 0
v -8 -4 0
v -8 -3 0
v -7 -3 0
v -4 -4 0
v -5 -4 0
v -5 -3 0
v -4 -3 0
v -3 -4 0
v -4 -4 0
v -4 -3 0
v -3 -3 0
v -29 -5 0
v -30 -5 0
v -30 -4 0
v -29 -4 0
v -28 -5 0
v -29 -5 0
v -29 -4 0
v -28 -4 0
v -25 -5 0
v -26 -5 0
v -26 -4 0
v -25 -4 0
v -29 -6 0
v -30 -6 0
v -30 -5 0
v -29 -5 0
v -28 -6 0
v -29 -6 0
v -29 -5 0
v -28 -5 0
v -3 -6 0
v -4 -6 0
v -4 -5 0
v -3 -5 0
v -29 -7 0
v -30 -7 0
v -30 -6 0
v -29 -6 0
v -28 -7 0
v -29 -7 0
v -29 -6 0
v -28 -6 0
v -31 -8 0
v -32 -8 0
v -32 -7 0
v -31 -7 0
v -29 -8 0
v -30 -8 0
v -30 -7 0
v -29 -7 0
v -28 -8 0
v -29 -8 0
v -29 -7 0
v -28 -7 0
v -29 -9 0
v -30 -9 0
v -30 -8 0
v -29 -8 0
v -28 -9 0
v -29 -9 0
v -29 -8 0
v -28 -8 0
v -22 -9 0
v -23 -9 0
v -23 -8 0
v -22 -8 0
v -29 -10 0
v -30 -10 0
v -30 -9 0
v -29 -9 0
v -28 -10 0
v -29 -10 0
v -29 -9 0
v -28 -9 0
v -26 -10 0
v -27 -10 0
v -27 -9 0
v -26 -9 0
v -29 -11 0
v -30 -11 0
v -30 -10 0
v -29 -10 0
v -28 -11 0
v -29 -11 0
v -29 -10 0
v -28 -10 0
v -29 -12 0
v -30 -12 0
v -30 -11 0
v -29 -11 0
v -28 -12 0
v -29 -12 0
v -29 -11 0
v -28 -11 0
v -18 -12 0
v -19 -12 0
v -19 -11 0
v -18 -11 0
v -1 -12 0
v -2 -12 0
v -2 -11 0
v -1 -11 0
v -29 -13 0
v -30 -13 0
v -30 -12 0
v -29 -12 0
v -28 -13 0
v -29 -13 0
v -29 -12 0
v -28 -12 0
v -33 -14 0
v -34 -14 0
v -34 -13 0
v -33 -13 0
v -29 -14 0
v -30 -14 0
v -30 -13 0
v -29 -13 0
v -28 -14 0
v -29 -14 0
v -29 -13 0
v -28 -13 0
v -17 -14 0
v -18 -14 0
v -18 -13 0
v -17 -13 0
v -14 -14 0
v -15 -14 0
v -15 -13 0
v -14 -13 0
v -36 -15 0
v -37 -15 0
v -37 -14 0
v -36 -14 0
v -29 -15 0
v -30 -15 0
v -30 -14 0
v -29 -14 0
v -28 -15 0
v -29 -15 0
v -29 -14 0
v -28 -14 0
v -26 -15 0
v -27 -15 0
v -27 -14 0
v -26 -14 0
v -16 -15 0
v -17 -15 0
v -17 -14 0
v -16 -14 0
v -15 -15 0
v -16 -15 0
v -16 -14 0
v -15 -14 0
v -29 -16 0
v -30 -16 0
v -30 -15 0
v -29 -15 0
v -28 -16 0
v -29 -16 0
v -29 -15 0
v -28 -15 0
v -17 -16 0
v -18 -16 0
v -18 -15 0
v -17 -15 0
v -15 -16 0
v -16 -16 0
v -16 -15 0
v -15 -15 0
v -14 -16 0
v -15 -16 0
v -15 -15 0
v -14 -15 0
v -29 -17 0
v -30 -17 0
v -30 -16 0
v -29 -16 0
v -28 -17 0
v -29 -17 0
v -29 -16 0
v -28 -16 0
v -17 -17 0
v -18 -17 0
v -18 -16 0
v -17 -16 0
v -16 -17 0
v -17 -17 0
v -17 -16 0
v -16 -16 0
v -12 -17 0
v -13 -17 0
v -13 -16 0
v -12 -16 0
v -11 -17 0
v -12 -17 0
v -12 -16 0
v -11 -16 0
v -10 -17 0
v -11 -17 0
v -11 -16 0
v -10 -16 0
v -9 -17 0
v -10 -17 0
v -10 -16 0
v -9 -16 0
v -8 -17 0
v -9 -17 0
v -9 -16 0
v -8 -16 0
v -7 -17 0
v -8 -17 0
v -8 -16 0
v -7 -16 0
v -29 -18 0
v -30 -18 0
v -30 -17 0
v -29 -17 0
v -28 -18 0
v -29 -18 0
v -29 -17 0
v -28 -17 0
v -15 -18 0
v -16 -18 0
v -16 -17 0
v -15 -17 0
v -12 -18 0
v -13 -18 0
v -13 -17 0
v -12 -17 0
v -11 -18 0
v -12 -18 0
v -12 -17 0
v -11 -17 0
v -10 -18 0
v -11 -18 0
v -11 -17 0
v -10 -17 0
v -9 -18 0
v -10 -18 0
v -10 -17 0
v -9 -17 0
v -8 -18 0
v -9 -18 0
v -9 -17 0
v -8 -17 0
v -7 -18 0
v -8 -18 0
v -8 -17 0
v -7 -17 0
v -29 -19 0
v -30 -19 0
v -30 -18 0
v -29 -18 0
v -28 -19 0
v -29 -19 0
v -29 -18 0
v -28 -18 0
v -12 -19 0
v -13 -19 0
v -13 -18 0
v -12 -18 0
v -11 -19 0
v -12 -19 0
v -12 -18 0
v -11 -18 0
v -10 -19 0
v -11 -19 0
v -11 -18 0
v -10 -18 0
v -9 -19 0
v -10 -19 0
v -10 -18 0
v -9 -18 0
v -8 -19 0
v -9 -19 0
v -9 -18 0
v -8 -18 0
v -7 -19 0
v -8 -19 0
v -8 -18 0
v -7 -18 0
v -29 -20 0
v -30 -20 0
v -30 -19 0
v -29 -19 0
v -28 -20 0
v -29 -20 0
v -29 -19 0
v -28 -19 0
v -29 -21 0
v -30 -21 0
v -30 -20 0
v -29 -20 0
v -28 -21 0
v -29 -21 0
v -29 -20 0
v -28 -20 0
v -29 -22 0
v -30 -22 0
v -30 -21 0
v -29 -21 0
v -28 -22 0
v -29 -22 0
v -29 -21 0
v -28 -21 0
v -26 -22 0
v -27 -22 0
v -27 -21 0
v -26 -21 0
v -34 -23 0
v -35 -23 0
v -35 -22 0
v -34 -22 0
v -29 -23 0
v -30 -23 0
v -30 -22 0
v -29 -22 0
v -28 -23 0
v -29 -23 0
v -29 -22 0
v -28 -22 0
v -29 -24 0
v -30 -24 0
v -30 -23 0
v -29 -23 0
v -28 -24 0
v -29 -24 0
v -29 -23 0
v -28 -23 0
v -29 -25 0
v -30 -25 0
v -30 -24 0
v -29 -24 0
v -28 -25 0
v -29 -25 0
v -29 -24 0
v -28 -24 0
v -29 -26 0
v -30 -26 0
v -30 -25 0
v -29 -25 0
v -28 -26 0
v -29 -26 0
v -29 -25 0
v -28 -25 0
v -29 -27 0
v -30 -27 0
v -30 -26 0
v -29 -26 0
v -28 -27 0
v -29 -27 0
v -29 -26 0
v -28 -26 0
v -25 -27 0
v -26 -27 0
v -26 -26 0
v -25 -26 0
v -32 -28 0
v -33 -28 0
v -33 -27 0
v -32 -27 0
v -29 -28 0
v -30 -28 0
v -30 -27 0
v -29 -27 0
v -28 -28 0
v -29 -28 0
v -29 -27 0
v -28 -27 0
v -16 -28 0
v -17 -28 0
v -17 -27 0
v -16 -27 0
v -29 -29 0
v -30 -29 0
v -30 -28 0
v -29 -28 0
v -28 -29 0
v -29 -29 0
v -29 -28 0
v -28 -28 0
v -38 -30 0
v -39 -30 0
v -39 -29 0
v -38 -29 0
v -37 -30 0
v -38 -30 0
v -38 -29 0
v -37 -29 0
v -36 -30 0
v -37 -30 0
v -37 -29 0
v -36 -29 0
v -35 -30 0
v -36 -30 0
v -36 -29 0
v -35 -29 0
v -34 -30 0
v -35 -30 0
v -35 -29 0
v -34 -29 0
v -33 -30 0
v -34 -30 0
v -34 -29 0
v -33 -29 0
v -32 -30 0
v -33 -30 0
v -33 -29 0
v -32 -29 0
v -31 -30 0
v -32 -30 0
v -32 -29 0
v -31 -29 0
v -30 -30 0
v -31 -30 0
v -31 -29 0
v -30 -29 0
v -37 -31 0
v -38 -31 0
v -38 -30 0
v -37 -30 0
v -34 -31 0
v -35 -31 0
v -35 -30 0
v -34 -30 0
v -38 -33 0
v -39 -33 0
v -39 -32 0
v -38 -32 0
v -36 -33 0
v -37 -33 0
v -37 -32 0
v -36 -32 0
v -35 -33 0
v -36 -33 0
v -36 -32 0
v -35 -32 0
v -33 -33 0
v -34 -33 0
v -34 -32 0
v -33 -32 0
v -28 -34 0
v -29 -34 0
v -29 -33 0
v -28 -33 0
v -27 -34 0
v -28 -34 0
v -28 -33 0
v -27 -33 0
v -23 -34 0
v -24 -34 0
v -24 -33 0
v -23 -33 0
v -22 -34 0
v -23 -34 0
v -23 -33 0
v -22 -33 0
v -21 -34 0
v -22 -34 0
v -22 -33 0
v -21 -33 0
v -20 -34 0
v -21 -34 0
v -21 -33 0
v -20 -33 0
v -19 -34 0
v -20 -34 0
v -20 -33 0
v -19 -33 0
v -5 -34 0
v -6 -34 0
v -6 -33 0
v -5 -33 0
v -4 -34 0
v -5 -34 0
v -5 -33 0
v -4 -33 0
v -3 -34 0
v -4 -34 0
v -4 -33 0
v -3 -33 0
v 0 -34 0
v -1 -34 0
v -1 -33 0
v 0 -33 0
v -37 -35 0
v -38 -35 0
v -38 -34 0
v -37 -34 0
v -29 -35 0
v -30 -35 0
v -30 -34 0
v -29 -34 0
v -28 -35 0
v -29 -35 0
v -29 -34 0
v -28 -34 0
v -27 -35 0
v -28 -35 0
v -28 -34 0
v -27 -34 0
v -23 -35 0
v -24 -35 0
v -24 -34 0
v -23 -34 0
v -22 -35 0
v -23 -35 0
v -23 -34 0
v -22 -34 0
v -21 -35 0
v -22 -35 0
v -22 -34 0
v -21 -34 0
v -20 -35 0
v -21 -35 0
v -21 -34 0
v -20 -34 0
v -19 -35 0
v -20 -35 0
v -20 -34 0
v -19 -34 0
v -5 -35 0
v -6 -35 0
v -6 -34 0
v -5 -34 0
v -4 -35 0
v -5 -35 0
v -5 -34 0
v -4 -34 0
v -3 -35 0
v -4 -35 0
v -4 -34 0
v -3 -34 0
v 0 -35 0
v -1 -35 0
v -1 -34 0
v 0 -34 0
v -35 -36 0
v -36 -36 0
v -36 -35 0
v -35 -35 0
v -31 -36 0
v -32 -36 0
v -32 -35 0
v -31 -35 0
v -37 -37 0
v -38 -37 0
v -38 -36 0
v -37 -36 0
v -32 -37 0
v -33 -37 0
v -33 -36 0
v -32 -36 0
v -26 -37 0
v -27 -37 0
v -27 -36 0
v -26 -36 0
v -25 -37 0
v -26 -37 0
v -26 -36 0
v -25 -36 0
v -36 -38 0
v -37 -38 0
v -37 -37 0
v -36 -37 0
v -34 -38 0
v -35 -38 0
v -35 -37 0
v -34 -37 0
v -26 -38 0
v -27 -38 0
v -27 -37 0
v -26 -37 0
v -25 -38 0
v -26 -38 0
v -26 -37 0
v -25 -37 0
v -38 -39 0
v -39 -39 0
v -39 -38 0
v -38 -38 0
v -33 -39 0
v -34 -39 0
v -34 -38 0
v -33 -38 0
v -31 -39 0
v -32 -39 0
v -32 -38 0
v -31 -38 0

# Texture cooridinates (Count = 119)
vt 0.775 0.32
vt 0.8 0.32
vt 0.8 0.36
vt 0.775 0.36
vt 0.75 0.32
vt 0.75 0.36
vt 0.775 0.28
vt 0.8 0.28
vt 0.75 0.28
vt 0 0.88
vt 0.025 0.88
vt 0.025 0.92
vt 0 0.92
vt 0.725 0.84
vt 0.75 0.84
vt 0.75 0.88
vt 0.725 0.88
vt 0.375 0.24
vt 0.4 0.24
vt 0.4 0.28
vt 0.375 0.28
vt 0.2 0.48
vt 0.225 0.48
vt 0.225 0.52
vt 0.2 0.52
vt 0.175 0.48
vt 0.175 0.52
vt 0.025 0.4
vt 0.05 0.4
vt 0.05 0.44
vt 0.025 0.44
vt 0 0.4
vt 0 0.44
vt 0.2 0.44
vt 0.225 0.44
vt 0.175 0.44
vt 0.025 0.36
vt 0.05 0.36
vt 0 0.36
vt 0.05 0.84
vt 0.075 0.84
vt 0.075 0.88
vt 0.05 0.88
vt 0.05 0.8
vt 0.075 0.8
vt 0.5 0.76
vt 0.525 0.76
vt 0.525 0.8
vt 0.5 0.8
vt 0.475 0.76
vt 0.475 0.8
vt 0.45 0.76
vt 0.45 0.8
vt 0.425 0.76
vt 0.425 0.8
vt 0.4 0.76
vt 0.4 0.8
vt 0.375 0.76
vt 0.375 0.8
vt 0.5 0.72
vt 0.525 0.72
vt 0.325 0.68
vt 0.35 0.68
vt 0.35 0.72
vt 0.325 0.72
vt 0.375 0.72
vt 0.4 0.72
vt 0.5 0.68
vt 0.525 0.68
vt 0.475 0.68
vt 0.475 0.72
vt 0.45 0.68
vt 0.45 0.72
vt 0.425 0.68
vt 0.425 0.72
vt 0.4 0.68
vt 0.375 0.68
vt 0.275 0.2
vt 0.3 0.2
vt 0.3 0.24
vt 0.275 0.24
vt 0.15 0.96
vt 0.175 0.96
vt 0.175 1
vt 0.15 1
vt 0.125 0.96
vt 0.125 1
vt 0.1 0.96
vt 0.1 1
vt 0.725 0.4
vt 0.75 0.4
vt 0.75 0.44
vt 0.725 0.44
vt 0.7 0.4
vt 0.7 0.44
vt 0.675 0.4
vt 0.675 0.44
vt 0.65 0.4
vt 0.65 0.44
vt 0.625 0.4
vt 0.625 0.44
vt 0.1 0.4
vt 0.125 0.4
vt 0.125 0.44
vt 0.1 0.44
vt 0.075 0.4
vt 0.075 0.44
vt 0.775 0.2
vt 0.8 0.2
vt 0.8 0.24
vt 0.775 0.24
vt 0.725 0.36
vt 0.7 0.36
vt 0.675 0.36
vt 0.65 0.36
vt 0.625 0.36
vt 0.1 0.36
vt 0.125 0.36
vt 0.075 0.36

# Normal
vn 0 0 -1

# Mesh description
g HunkerMap1_mesh_0004

# Faces
f 1/1/1 2/2/1 3/3/1 4/4/1
f 5/5/1 6/1/1 7/4/1 8/6/1
f 9/7/1 10/8/1 11/2/1 12/1/1
f 13/9/1 14/7/1 15/1/1 16/5/1
f 17/10/1 18/11/1 19/12/1 20/13/1
f 21/10/1 22/11/1 23/12/1 24/13/1
f 25/14/1 26/15/1 27/16/1 28/17/1
f 29/18/1 30/19/1 31/20/1 32/21/1
f 33/7/1 34/8/1 35/2/1 36/1/1
f 37/9/1 38/7/1 39/1/1 40/5/1
f 41/22/1 42/23/1 43/24/1 44/25/1
f 45/26/1 46/22/1 47/25/1 48/27/1
f 49/28/1 50/29/1 51/30/1 52/31/1
f 53/32/1 54/28/1 55/31/1 56/33/1
f 57/14/1 58/15/1 59/16/1 60/17/1
f 61/7/1 62/8/1 63/2/1 64/1/1
f 65/9/1 66/7/1 67/1/1 68/5/1
f 69/34/1 70/35/1 71/23/1 72/22/1
f 73/36/1 74/34/1 75/22/1 76/26/1
f 77/18/1 78/19/1 79/20/1 80/21/1
f 81/37/1 82/38/1 83/29/1 84/28/1
f 85/39/1 86/37/1 87/28/1 88/32/1
f 89/7/1 90/8/1 91/2/1 92/1/1
f 93/9/1 94/7/1 95/1/1 96/5/1
f 97/18/1 98/19/1 99/20/1 100/21/1
f 101/7/1 102/8/1 103/2/1 104/1/1
f 105/9/1 106/7/1 107/1/1 108/5/1
f 109/18/1 110/19/1 111/20/1 112/21/1
f 113/7/1 114/8/1 115/2/1 116/1/1
f 117/9/1 118/7/1 119/1/1 120/5/1
f 121/18/1 122/19/1 123/20/1 124/21/1
f 125/7/1 126/8/1 127/2/1 128/1/1
f 129/9/1 130/7/1 131/1/1 132/5/1
f 133/7/1 134/8/1 135/2/1 136/1/1
f 137/9/1 138/7/1 139/1/1 140/5/1
f 141/18/1 142/19/1 143/20/1 144/21/1
f 145/7/1 146/8/1 147/2/1 148/1/1
f 149/9/1 150/7/1 151/1/1 152/5/1
f 153/18/1 154/19/1 155/20/1 156/21/1
f 157/7/1 158/8/1 159/2/1 160/1/1
f 161/9/1 162/7/1 163/1/1 164/5/1
f 165/7/1 166/8/1 167/2/1 168/1/1
f 169/9/1 170/7/1 171/1/1 172/5/1
f 173/10/1 174/11/1 175/12/1 176/13/1
f 177/10/1 178/11/1 179/12/1 180/13/1
f 181/7/1 182/8/1 183/2/1 184/1/1
f 185/9/1 186/7/1 187/1/1 188/5/1
f 189/18/1 190/19/1 191/20/1 192/21/1
f 193/7/1 194/8/1 195/2/1 196/1/1
f 197/9/1 198/7/1 199/1/1 200/5/1
f 201/40/1 202/41/1 203/42/1 204/43/1
f 205/40/1 206/41/1 207/42/1 208/43/1
f 209/18/1 210/19/1 211/20/1 212/21/1
f 213/7/1 214/8/1 215/2/1 216/1/1
f 217/9/1 218/7/1 219/1/1 220/5/1
f 221/18/1 222/19/1 223/20/1 224/21/1
f 225/44/1 226/45/1 227/41/1 228/40/1
f 229/40/1 230/41/1 231/42/1 232/43/1
f 233/7/1 234/8/1 235/2/1 236/1/1
f 237/9/1 238/7/1 239/1/1 240/5/1
f 241/40/1 242/41/1 243/42/1 244/43/1
f 245/40/1 246/41/1 247/42/1 248/43/1
f 249/40/1 250/41/1 251/42/1 252/43/1
f 253/7/1 254/8/1 255/2/1 256/1/1
f 257/9/1 258/7/1 259/1/1 260/5/1
f 261/40/1 262/41/1 263/42/1 264/43/1
f 265/44/1 266/45/1 267/41/1 268/40/1
f 269/46/1 270/47/1 271/48/1 272/49/1
f 273/50/1 274/46/1 275/49/1 276/51/1
f 277/52/1 278/50/1 279/51/1 280/53/1
f 281/54/1 282/52/1 283/53/1 284/55/1
f 285/56/1 286/54/1 287/55/1 288/57/1
f 289/58/1 290/56/1 291/57/1 292/59/1
f 293/7/1 294/8/1 295/2/1 296/1/1
f 297/9/1 298/7/1 299/1/1 300/5/1
f 301/40/1 302/41/1 303/42/1 304/43/1
f 305/60/1 306/61/1 307/47/1 308/46/1
f 309/62/1 310/63/1 311/64/1 312/65/1
f 313/62/1 314/63/1 315/64/1 316/65/1
f 317/62/1 318/63/1 319/64/1 320/65/1
f 321/62/1 322/63/1 323/64/1 324/65/1
f 325/66/1 326/67/1 327/56/1 328/58/1
f 329/7/1 330/8/1 331/2/1 332/1/1
f 333/9/1 334/7/1 335/1/1 336/5/1
f 337/68/1 338/69/1 339/61/1 340/60/1
f 341/70/1 342/68/1 343/60/1 344/71/1
f 345/72/1 346/70/1 347/71/1 348/73/1
f 349/74/1 350/72/1 351/73/1 352/75/1
f 353/76/1 354/74/1 355/75/1 356/67/1
f 357/77/1 358/76/1 359/67/1 360/66/1
f 361/7/1 362/8/1 363/2/1 364/1/1
f 365/9/1 366/7/1 367/1/1 368/5/1
f 369/7/1 370/8/1 371/2/1 372/1/1
f 373/9/1 374/7/1 375/1/1 376/5/1
f 377/7/1 378/8/1 379/2/1 380/1/1
f 381/9/1 382/7/1 383/1/1 384/5/1
f 385/18/1 386/19/1 387/20/1 388/21/1
f 389/18/1 390/19/1 391/20/1 392/21/1
f 393/7/1 394/8/1 395/2/1 396/1/1
f 397/9/1 398/7/1 399/1/1 400/5/1
f 401/7/1 402/8/1 403/2/1 404/1/1
f 405/9/1 406/7/1 407/1/1 408/5/1
f 409/7/1 410/8/1 411/2/1 412/1/1
f 413/9/1 414/7/1 415/1/1 416/5/1
f 417/7/1 418/8/1 419/2/1 420/1/1
f 421/9/1 422/7/1 423/1/1 424/5/1
f 425/7/1 426/8/1 427/2/1 428/1/1
f 429/9/1 430/7/1 431/1/1 432/5/1
f 433/18/1 434/19/1 435/20/1 436/21/1
f 437/18/1 438/19/1 439/20/1 440/21/1
f 441/7/1 442/8/1 443/2/1 444/1/1
f 445/9/1 446/7/1 447/1/1 448/5/1
f 449/78/1 450/79/1 451/80/1 452/81/1
f 453/7/1 454/8/1 455/2/1 456/1/1
f 457/9/1 458/7/1 459/1/1 460/5/1
f 461/82/1 462/83/1 463/84/1 464/85/1
f 465/86/1 466/82/1 467/85/1 468/87/1
f 469/86/1 470/82/1 471/85/1 472/87/1
f 473/86/1 474/82/1 475/85/1 476/87/1
f 477/86/1 478/82/1 479/85/1 480/87/1
f 481/86/1 482/82/1 483/85/1 484/87/1
f 485/86/1 486/82/1 487/85/1 488/87/1
f 489/86/1 490/82/1 491/85/1 492/87/1
f 493/88/1 494/86/1 495/87/1 496/89/1
f 497/40/1 498/41/1 499/42/1 500/43/1
f 501/40/1 502/41/1 503/42/1 504/43/1
f 505/40/1 506/41/1 507/42/1 508/43/1
f 509/40/1 510/41/1 511/42/1 512/43/1
f 513/40/1 514/41/1 515/42/1 516/43/1
f 517/40/1 518/41/1 519/42/1 520/43/1
f 521/22/1 522/23/1 523/24/1 524/25/1
f 525/26/1 526/22/1 527/25/1 528/27/1
f 529/90/1 530/91/1 531/92/1 532/93/1
f 533/94/1 534/90/1 535/93/1 536/95/1
f 537/96/1 538/94/1 539/95/1 540/97/1
f 541/98/1 542/96/1 543/97/1 544/99/1
f 545/100/1 546/98/1 547/99/1 548/101/1
f 549/102/1 550/103/1 551/104/1 552/105/1
f 553/106/1 554/102/1 555/105/1 556/107/1
f 557/29/1 558/106/1 559/107/1 560/30/1
f 561/100/1 562/98/1 563/99/1 564/101/1
f 565/40/1 566/41/1 567/42/1 568/43/1
f 569/108/1 570/109/1 571/110/1 572/111/1
f 573/34/1 574/35/1 575/23/1 576/22/1
f 577/36/1 578/34/1 579/22/1 580/26/1
f 581/112/1 582/6/1 583/91/1 584/90/1
f 585/113/1 586/112/1 587/90/1 588/94/1
f 589/114/1 590/113/1 591/94/1 592/96/1
f 593/115/1 594/114/1 595/96/1 596/98/1
f 597/116/1 598/115/1 599/98/1 600/100/1
f 601/117/1 602/118/1 603/103/1 604/102/1
f 605/119/1 606/117/1 607/102/1 608/106/1
f 609/38/1 610/119/1 611/106/1 612/29/1
f 613/116/1 614/115/1 615/98/1 616/100/1
f 617/40/1 618/41/1 619/42/1 620/43/1
f 621/40/1 622/41/1 623/42/1 624/43/1
f 625/40/1 626/41/1 627/42/1 628/43/1
f 629/40/1 630/41/1 631/42/1 632/43/1
f 633/22/1 634/23/1 635/24/1 636/25/1
f 637/26/1 638/22/1 639/25/1 640/27/1
f 641/40/1 642/41/1 643/42/1 644/43/1
f 645/40/1 646/41/1 647/42/1 648/43/1
f 649/34/1 650/35/1 651/23/1 652/22/1
f 653/36/1 654/34/1 655/22/1 656/26/1
f 657/40/1 658/41/1 659/42/1 660/43/1
f 661/40/1 662/41/1 663/42/1 664/43/1
f 665/40/1 666/41/1 667/42/1 668/43/1

