# Tiled2Unity generated file. Do not modify by hand.
# Wavefront file for 'HunkerMap2_mesh_0005.obj'

# Vertices (Count = 848)
v -100 -8 0
v -101 -8 0
v -101 -7 0
v -100 -7 0
v -99 -8 0
v -100 -8 0
v -100 -7 0
v -99 -7 0
v -100 -9 0
v -101 -9 0
v -101 -8 0
v -100 -8 0
v -99 -9 0
v -100 -9 0
v -100 -8 0
v -99 -8 0
v -102 -10 0
v -103 -10 0
v -103 -9 0
v -102 -9 0
v -101 -10 0
v -102 -10 0
v -102 -9 0
v -101 -9 0
v -100 -10 0
v -101 -10 0
v -101 -9 0
v -100 -9 0
v -99 -10 0
v -100 -10 0
v -100 -9 0
v -99 -9 0
v -98 -10 0
v -99 -10 0
v -99 -9 0
v -98 -9 0
v -97 -10 0
v -98 -10 0
v -98 -9 0
v -97 -9 0
v -102 -11 0
v -103 -11 0
v -103 -10 0
v -102 -10 0
v -101 -11 0
v -102 -11 0
v -102 -10 0
v -101 -10 0
v -100 -11 0
v -101 -11 0
v -101 -10 0
v -100 -10 0
v -99 -11 0
v -100 -11 0
v -100 -10 0
v -99 -10 0
v -98 -11 0
v -99 -11 0
v -99 -10 0
v -98 -10 0
v -97 -11 0
v -98 -11 0
v -98 -10 0
v -97 -10 0
v -269 -12 0
v -270 -12 0
v -270 -11 0
v -269 -11 0
v -268 -12 0
v -269 -12 0
v -269 -11 0
v -268 -11 0
v -100 -12 0
v -101 -12 0
v -101 -11 0
v -100 -11 0
v -99 -12 0
v -100 -12 0
v -100 -11 0
v -99 -11 0
v -3 -12 0
v -4 -12 0
v -4 -11 0
v -3 -11 0
v -2 -12 0
v -3 -12 0
v -3 -11 0
v -2 -11 0
v -269 -13 0
v -270 -13 0
v -270 -12 0
v -269 -12 0
v -268 -13 0
v -269 -13 0
v -269 -12 0
v -268 -12 0
v -100 -13 0
v -101 -13 0
v -101 -12 0
v -100 -12 0
v -99 -13 0
v -100 -13 0
v -100 -12 0
v -99 -12 0
v -3 -13 0
v -4 -13 0
v -4 -12 0
v -3 -12 0
v -2 -13 0
v -3 -13 0
v -3 -12 0
v -2 -12 0
v -271 -14 0
v -272 -14 0
v -272 -13 0
v -271 -13 0
v -270 -14 0
v -271 -14 0
v -271 -13 0
v -270 -13 0
v -269 -14 0
v -270 -14 0
v -270 -13 0
v -269 -13 0
v -268 -14 0
v -269 -14 0
v -269 -13 0
v -268 -13 0
v -267 -14 0
v -268 -14 0
v -268 -13 0
v -267 -13 0
v -266 -14 0
v -267 -14 0
v -267 -13 0
v -266 -13 0
v -187 -14 0
v -188 -14 0
v -188 -13 0
v -187 -13 0
v -186 -14 0
v -187 -14 0
v -187 -13 0
v -186 -13 0
v -5 -14 0
v -6 -14 0
v -6 -13 0
v -5 -13 0
v -4 -14 0
v -5 -14 0
v -5 -13 0
v -4 -13 0
v -3 -14 0
v -4 -14 0
v -4 -13 0
v -3 -13 0
v -2 -14 0
v -3 -14 0
v -3 -13 0
v -2 -13 0
v -1 -14 0
v -2 -14 0
v -2 -13 0
v -1 -13 0
v -271 -15 0
v -272 -15 0
v -272 -14 0
v -271 -14 0
v -270 -15 0
v -271 -15 0
v -271 -14 0
v -270 -14 0
v -269 -15 0
v -270 -15 0
v -270 -14 0
v -269 -14 0
v -268 -15 0
v -269 -15 0
v -269 -14 0
v -268 -14 0
v -267 -15 0
v -268 -15 0
v -268 -14 0
v -267 -14 0
v -266 -15 0
v -267 -15 0
v -267 -14 0
v -266 -14 0
v -187 -15 0
v -188 -15 0
v -188 -14 0
v -187 -14 0
v -186 -15 0
v -187 -15 0
v -187 -14 0
v -186 -14 0
v -5 -15 0
v -6 -15 0
v -6 -14 0
v -5 -14 0
v -4 -15 0
v -5 -15 0
v -5 -14 0
v -4 -14 0
v -3 -15 0
v -4 -15 0
v -4 -14 0
v -3 -14 0
v -2 -15 0
v -3 -15 0
v -3 -14 0
v -2 -14 0
v -1 -15 0
v -2 -15 0
v -2 -14 0
v -1 -14 0
v -269 -16 0
v -270 -16 0
v -270 -15 0
v -269 -15 0
v -268 -16 0
v -269 -16 0
v -269 -15 0
v -268 -15 0
v -3 -16 0
v -4 -16 0
v -4 -15 0
v -3 -15 0
v -2 -16 0
v -3 -16 0
v -3 -15 0
v -2 -15 0
v -297 -17 0
v -298 -17 0
v -298 -16 0
v -297 -16 0
v -296 -17 0
v -297 -17 0
v -297 -16 0
v -296 -16 0
v -269 -17 0
v -270 -17 0
v -270 -16 0
v -269 -16 0
v -268 -17 0
v -269 -17 0
v -269 -16 0
v -268 -16 0
v -3 -17 0
v -4 -17 0
v -4 -16 0
v -3 -16 0
v -2 -17 0
v -3 -17 0
v -3 -16 0
v -2 -16 0
v -358 -18 0
v -359 -18 0
v -359 -17 0
v -358 -17 0
v -357 -18 0
v -358 -18 0
v -358 -17 0
v -357 -17 0
v -349 -18 0
v -350 -18 0
v -350 -17 0
v -349 -17 0
v -348 -18 0
v -349 -18 0
v -349 -17 0
v -348 -17 0
v -297 -18 0
v -298 -18 0
v -298 -17 0
v -297 -17 0
v -296 -18 0
v -297 -18 0
v -297 -17 0
v -296 -17 0
v -358 -19 0
v -359 -19 0
v -359 -18 0
v -358 -18 0
v -357 -19 0
v -358 -19 0
v -358 -18 0
v -357 -18 0
v -349 -19 0
v -350 -19 0
v -350 -18 0
v -349 -18 0
v -348 -19 0
v -349 -19 0
v -349 -18 0
v -348 -18 0
v -299 -19 0
v -300 -19 0
v -300 -18 0
v -299 -18 0
v -298 -19 0
v -299 -19 0
v -299 -18 0
v -298 -18 0
v -297 -19 0
v -298 -19 0
v -298 -18 0
v -297 -18 0
v -296 -19 0
v -297 -19 0
v -297 -18 0
v -296 -18 0
v -295 -19 0
v -296 -19 0
v -296 -18 0
v -295 -18 0
v -294 -19 0
v -295 -19 0
v -295 -18 0
v -294 -18 0
v -360 -20 0
v -361 -20 0
v -361 -19 0
v -360 -19 0
v -359 -20 0
v -360 -20 0
v -360 -19 0
v -359 -19 0
v -358 -20 0
v -359 -20 0
v -359 -19 0
v -358 -19 0
v -357 -20 0
v -358 -20 0
v -358 -19 0
v -357 -19 0
v -356 -20 0
v -357 -20 0
v -357 -19 0
v -356 -19 0
v -355 -20 0
v -356 -20 0
v -356 -19 0
v -355 -19 0
v -351 -20 0
v -352 -20 0
v -352 -19 0
v -351 -19 0
v -350 -20 0
v -351 -20 0
v -351 -19 0
v -350 -19 0
v -349 -20 0
v -350 -20 0
v -350 -19 0
v -349 -19 0
v -348 -20 0
v -349 -20 0
v -349 -19 0
v -348 -19 0
v -347 -20 0
v -348 -20 0
v -348 -19 0
v -347 -19 0
v -346 -20 0
v -347 -20 0
v -347 -19 0
v -346 -19 0
v -299 -20 0
v -300 -20 0
v -300 -19 0
v -299 -19 0
v -298 -20 0
v -299 -20 0
v -299 -19 0
v -298 -19 0
v -297 -20 0
v -298 -20 0
v -298 -19 0
v -297 -19 0
v -296 -20 0
v -297 -20 0
v -297 -19 0
v -296 -19 0
v -295 -20 0
v -296 -20 0
v -296 -19 0
v -295 -19 0
v -294 -20 0
v -295 -20 0
v -295 -19 0
v -294 -19 0
v -360 -21 0
v -361 -21 0
v -361 -20 0
v -360 -20 0
v -359 -21 0
v -360 -21 0
v -360 -20 0
v -359 -20 0
v -358 -21 0
v -359 -21 0
v -359 -20 0
v -358 -20 0
v -357 -21 0
v -358 -21 0
v -358 -20 0
v -357 -20 0
v -356 -21 0
v -357 -21 0
v -357 -20 0
v -356 -20 0
v -355 -21 0
v -356 -21 0
v -356 -20 0
v -355 -20 0
v -351 -21 0
v -352 -21 0
v -352 -20 0
v -351 -20 0
v -350 -21 0
v -351 -21 0
v -351 -20 0
v -350 -20 0
v -349 -21 0
v -350 -21 0
v -350 -20 0
v -349 -20 0
v -348 -21 0
v -349 -21 0
v -349 -20 0
v -348 -20 0
v -347 -21 0
v -348 -21 0
v -348 -20 0
v -347 -20 0
v -346 -21 0
v -347 -21 0
v -347 -20 0
v -346 -20 0
v -297 -21 0
v -298 -21 0
v -298 -20 0
v -297 -20 0
v -296 -21 0
v -297 -21 0
v -297 -20 0
v -296 -20 0
v -30 -21 0
v -31 -21 0
v -31 -20 0
v -30 -20 0
v -358 -22 0
v -359 -22 0
v -359 -21 0
v -358 -21 0
v -357 -22 0
v -358 -22 0
v -358 -21 0
v -357 -21 0
v -349 -22 0
v -350 -22 0
v -350 -21 0
v -349 -21 0
v -348 -22 0
v -349 -22 0
v -349 -21 0
v -348 -21 0
v -297 -22 0
v -298 -22 0
v -298 -21 0
v -297 -21 0
v -296 -22 0
v -297 -22 0
v -297 -21 0
v -296 -21 0
v -30 -22 0
v -31 -22 0
v -31 -21 0
v -30 -21 0
v -358 -23 0
v -359 -23 0
v -359 -22 0
v -358 -22 0
v -357 -23 0
v -358 -23 0
v -358 -22 0
v -357 -22 0
v -349 -23 0
v -350 -23 0
v -350 -22 0
v -349 -22 0
v -348 -23 0
v -349 -23 0
v -349 -22 0
v -348 -22 0
v -358 -26 0
v -359 -26 0
v -359 -25 0
v -358 -25 0
v -357 -26 0
v -358 -26 0
v -358 -25 0
v -357 -25 0
v -349 -26 0
v -350 -26 0
v -350 -25 0
v -349 -25 0
v -348 -26 0
v -349 -26 0
v -349 -25 0
v -348 -25 0
v -316 -26 0
v -317 -26 0
v -317 -25 0
v -316 -25 0
v -358 -27 0
v -359 -27 0
v -359 -26 0
v -358 -26 0
v -357 -27 0
v -358 -27 0
v -358 -26 0
v -357 -26 0
v -349 -27 0
v -350 -27 0
v -350 -26 0
v -349 -26 0
v -348 -27 0
v -349 -27 0
v -349 -26 0
v -348 -26 0
v -316 -27 0
v -317 -27 0
v -317 -26 0
v -316 -26 0
v -297 -27 0
v -298 -27 0
v -298 -26 0
v -297 -26 0
v -296 -27 0
v -297 -27 0
v -297 -26 0
v -296 -26 0
v -27 -27 0
v -28 -27 0
v -28 -26 0
v -27 -26 0
v -360 -28 0
v -361 -28 0
v -361 -27 0
v -360 -27 0
v -359 -28 0
v -360 -28 0
v -360 -27 0
v -359 -27 0
v -358 -28 0
v -359 -28 0
v -359 -27 0
v -358 -27 0
v -357 -28 0
v -358 -28 0
v -358 -27 0
v -357 -27 0
v -356 -28 0
v -357 -28 0
v -357 -27 0
v -356 -27 0
v -355 -28 0
v -356 -28 0
v -356 -27 0
v -355 -27 0
v -351 -28 0
v -352 -28 0
v -352 -27 0
v -351 -27 0
v -350 -28 0
v -351 -28 0
v -351 -27 0
v -350 -27 0
v -349 -28 0
v -350 -28 0
v -350 -27 0
v -349 -27 0
v -348 -28 0
v -349 -28 0
v -349 -27 0
v -348 -27 0
v -347 -28 0
v -348 -28 0
v -348 -27 0
v -347 -27 0
v -346 -28 0
v -347 -28 0
v -347 -27 0
v -346 -27 0
v -297 -28 0
v -298 -28 0
v -298 -27 0
v -297 -27 0
v -296 -28 0
v -297 -28 0
v -297 -27 0
v -296 -27 0
v -27 -28 0
v -28 -28 0
v -28 -27 0
v -27 -27 0
v -360 -29 0
v -361 -29 0
v -361 -28 0
v -360 -28 0
v -359 -29 0
v -360 -29 0
v -360 -28 0
v -359 -28 0
v -358 -29 0
v -359 -29 0
v -359 -28 0
v -358 -28 0
v -357 -29 0
v -358 -29 0
v -358 -28 0
v -357 -28 0
v -356 -29 0
v -357 -29 0
v -357 -28 0
v -356 -28 0
v -355 -29 0
v -356 -29 0
v -356 -28 0
v -355 -28 0
v -351 -29 0
v -352 -29 0
v -352 -28 0
v -351 -28 0
v -350 -29 0
v -351 -29 0
v -351 -28 0
v -350 -28 0
v -349 -29 0
v -350 -29 0
v -350 -28 0
v -349 -28 0
v -348 -29 0
v -349 -29 0
v -349 -28 0
v -348 -28 0
v -347 -29 0
v -348 -29 0
v -348 -28 0
v -347 -28 0
v -346 -29 0
v -347 -29 0
v -347 -28 0
v -346 -28 0
v -299 -29 0
v -300 -29 0
v -300 -28 0
v -299 -28 0
v -298 -29 0
v -299 -29 0
v -299 -28 0
v -298 -28 0
v -297 -29 0
v -298 -29 0
v -298 -28 0
v -297 -28 0
v -296 -29 0
v -297 -29 0
v -297 -28 0
v -296 -28 0
v -295 -29 0
v -296 -29 0
v -296 -28 0
v -295 -28 0
v -294 -29 0
v -295 -29 0
v -295 -28 0
v -294 -28 0
v -358 -30 0
v -359 -30 0
v -359 -29 0
v -358 -29 0
v -357 -30 0
v -358 -30 0
v -358 -29 0
v -357 -29 0
v -349 -30 0
v -350 -30 0
v -350 -29 0
v -349 -29 0
v -348 -30 0
v -349 -30 0
v -349 -29 0
v -348 -29 0
v -299 -30 0
v -300 -30 0
v -300 -29 0
v -299 -29 0
v -298 -30 0
v -299 -30 0
v -299 -29 0
v -298 -29 0
v -297 -30 0
v -298 -30 0
v -298 -29 0
v -297 -29 0
v -296 -30 0
v -297 -30 0
v -297 -29 0
v -296 -29 0
v -295 -30 0
v -296 -30 0
v -296 -29 0
v -295 -29 0
v -294 -30 0
v -295 -30 0
v -295 -29 0
v -294 -29 0
v -358 -31 0
v -359 -31 0
v -359 -30 0
v -358 -30 0
v -357 -31 0
v -358 -31 0
v -358 -30 0
v -357 -30 0
v -349 -31 0
v -350 -31 0
v -350 -30 0
v -349 -30 0
v -348 -31 0
v -349 -31 0
v -349 -30 0
v -348 -30 0
v -297 -31 0
v -298 -31 0
v -298 -30 0
v -297 -30 0
v -296 -31 0
v -297 -31 0
v -297 -30 0
v -296 -30 0
v -297 -32 0
v -298 -32 0
v -298 -31 0
v -297 -31 0
v -296 -32 0
v -297 -32 0
v -297 -31 0
v -296 -31 0
v -269 -32 0
v -270 -32 0
v -270 -31 0
v -269 -31 0
v -268 -32 0
v -269 -32 0
v -269 -31 0
v -268 -31 0
v -269 -33 0
v -270 -33 0
v -270 -32 0
v -269 -32 0
v -268 -33 0
v -269 -33 0
v -269 -32 0
v -268 -32 0
v -271 -34 0
v -272 -34 0
v -272 -33 0
v -271 -33 0
v -270 -34 0
v -271 -34 0
v -271 -33 0
v -270 -33 0
v -269 -34 0
v -270 -34 0
v -270 -33 0
v -269 -33 0
v -268 -34 0
v -269 -34 0
v -269 -33 0
v -268 -33 0
v -267 -34 0
v -268 -34 0
v -268 -33 0
v -267 -33 0
v -266 -34 0
v -267 -34 0
v -267 -33 0
v -266 -33 0
v -187 -34 0
v -188 -34 0
v -188 -33 0
v -187 -33 0
v -186 -34 0
v -187 -34 0
v -187 -33 0
v -186 -33 0
v -271 -35 0
v -272 -35 0
v -272 -34 0
v -271 -34 0
v -270 -35 0
v -271 -35 0
v -271 -34 0
v -270 -34 0
v -269 -35 0
v -270 -35 0
v -270 -34 0
v -269 -34 0
v -268 -35 0
v -269 -35 0
v -269 -34 0
v -268 -34 0
v -267 -35 0
v -268 -35 0
v -268 -34 0
v -267 -34 0
v -266 -35 0
v -267 -35 0
v -267 -34 0
v -266 -34 0
v -187 -35 0
v -188 -35 0
v -188 -34 0
v -187 -34 0
v -186 -35 0
v -187 -35 0
v -187 -34 0
v -186 -34 0
v -269 -36 0
v -270 -36 0
v -270 -35 0
v -269 -35 0
v -268 -36 0
v -269 -36 0
v -269 -35 0
v -268 -35 0
v -269 -37 0
v -270 -37 0
v -270 -36 0
v -269 -36 0
v -268 -37 0
v -269 -37 0
v -269 -36 0
v -268 -36 0

# Texture cooridinates (Count = 38)
vt 0.9375 0.5
vt 1 0.5
vt 1 0.5625
vt 0.9375 0.5625
vt 0.875 0.5
vt 0.875 0.5625
vt 0.9375 0.4375
vt 1 0.4375
vt 0.875 0.4375
vt 0.6875 0.5
vt 0.75 0.5
vt 0.75 0.5625
vt 0.6875 0.5625
vt 0.625 0.5
vt 0.625 0.5625
vt 0.25 0.5625
vt 0.3125 0.5625
vt 0.3125 0.625
vt 0.25 0.625
vt 0.8125 0.5
vt 0.8125 0.5625
vt 0.6875 0.4375
vt 0.75 0.4375
vt 0.625 0.4375
vt 0.8125 0.4375
vt 0.5625 0.5
vt 0.5625 0.5625
vt 0.5 0.5
vt 0.5 0.5625
vt 0.5625 0.4375
vt 0.5 0.4375
vt 0.375 0.5625
vt 0.4375 0.5625
vt 0.4375 0.625
vt 0.375 0.625
vt 0.375 0.5
vt 0.4375 0.5
vt 0.3125 0.5

# Normal
vn 0 0 -1

# Mesh description
g HunkerMap2_mesh_0005

# Faces
f 1/1/1 2/2/1 3/3/1 4/4/1
f 5/5/1 6/1/1 7/4/1 8/6/1
f 9/7/1 10/8/1 11/2/1 12/1/1
f 13/9/1 14/7/1 15/1/1 16/5/1
f 17/10/1 18/11/1 19/12/1 20/13/1
f 21/14/1 22/10/1 23/13/1 24/15/1
f 25/16/1 26/17/1 27/18/1 28/19/1
f 29/16/1 30/17/1 31/18/1 32/19/1
f 33/20/1 34/5/1 35/6/1 36/21/1
f 37/11/1 38/20/1 39/21/1 40/12/1
f 41/22/1 42/23/1 43/11/1 44/10/1
f 45/24/1 46/22/1 47/10/1 48/14/1
f 49/16/1 50/17/1 51/18/1 52/19/1
f 53/16/1 54/17/1 55/18/1 56/19/1
f 57/25/1 58/9/1 59/5/1 60/20/1
f 61/23/1 62/25/1 63/20/1 64/11/1
f 65/1/1 66/2/1 67/3/1 68/4/1
f 69/5/1 70/1/1 71/4/1 72/6/1
f 73/26/1 74/14/1 75/15/1 76/27/1
f 77/28/1 78/26/1 79/27/1 80/29/1
f 81/1/1 82/2/1 83/3/1 84/4/1
f 85/5/1 86/1/1 87/4/1 88/6/1
f 89/7/1 90/8/1 91/2/1 92/1/1
f 93/9/1 94/7/1 95/1/1 96/5/1
f 97/30/1 98/24/1 99/14/1 100/26/1
f 101/31/1 102/30/1 103/26/1 104/28/1
f 105/7/1 106/8/1 107/2/1 108/1/1
f 109/9/1 110/7/1 111/1/1 112/5/1
f 113/10/1 114/11/1 115/12/1 116/13/1
f 117/14/1 118/10/1 119/13/1 120/15/1
f 121/16/1 122/17/1 123/18/1 124/19/1
f 125/16/1 126/17/1 127/18/1 128/19/1
f 129/20/1 130/5/1 131/6/1 132/21/1
f 133/11/1 134/20/1 135/21/1 136/12/1
f 137/16/1 138/17/1 139/18/1 140/19/1
f 141/16/1 142/17/1 143/18/1 144/19/1
f 145/10/1 146/11/1 147/12/1 148/13/1
f 149/14/1 150/10/1 151/13/1 152/15/1
f 153/16/1 154/17/1 155/18/1 156/19/1
f 157/16/1 158/17/1 159/18/1 160/19/1
f 161/20/1 162/5/1 163/6/1 164/21/1
f 165/22/1 166/23/1 167/11/1 168/10/1
f 169/24/1 170/22/1 171/10/1 172/14/1
f 173/16/1 174/17/1 175/18/1 176/19/1
f 177/16/1 178/17/1 179/18/1 180/19/1
f 181/25/1 182/9/1 183/5/1 184/20/1
f 185/23/1 186/25/1 187/20/1 188/11/1
f 189/16/1 190/17/1 191/18/1 192/19/1
f 193/16/1 194/17/1 195/18/1 196/19/1
f 197/22/1 198/23/1 199/11/1 200/10/1
f 201/24/1 202/22/1 203/10/1 204/14/1
f 205/16/1 206/17/1 207/18/1 208/19/1
f 209/16/1 210/17/1 211/18/1 212/19/1
f 213/25/1 214/9/1 215/5/1 216/20/1
f 217/26/1 218/14/1 219/15/1 220/27/1
f 221/28/1 222/26/1 223/27/1 224/29/1
f 225/26/1 226/14/1 227/15/1 228/27/1
f 229/28/1 230/26/1 231/27/1 232/29/1
f 233/1/1 234/2/1 235/3/1 236/4/1
f 237/5/1 238/1/1 239/4/1 240/6/1
f 241/30/1 242/24/1 243/14/1 244/26/1
f 245/31/1 246/30/1 247/26/1 248/28/1
f 249/30/1 250/24/1 251/14/1 252/26/1
f 253/31/1 254/30/1 255/26/1 256/28/1
f 257/1/1 258/2/1 259/3/1 260/4/1
f 261/5/1 262/1/1 263/4/1 264/6/1
f 265/1/1 266/2/1 267/3/1 268/4/1
f 269/5/1 270/1/1 271/4/1 272/6/1
f 273/7/1 274/8/1 275/2/1 276/1/1
f 277/9/1 278/7/1 279/1/1 280/5/1
f 281/7/1 282/8/1 283/2/1 284/1/1
f 285/9/1 286/7/1 287/1/1 288/5/1
f 289/7/1 290/8/1 291/2/1 292/1/1
f 293/9/1 294/7/1 295/1/1 296/5/1
f 297/10/1 298/11/1 299/12/1 300/13/1
f 301/14/1 302/10/1 303/13/1 304/15/1
f 305/16/1 306/17/1 307/18/1 308/19/1
f 309/16/1 310/17/1 311/18/1 312/19/1
f 313/20/1 314/5/1 315/6/1 316/21/1
f 317/11/1 318/20/1 319/21/1 320/12/1
f 321/10/1 322/11/1 323/12/1 324/13/1
f 325/14/1 326/10/1 327/13/1 328/15/1
f 329/16/1 330/17/1 331/18/1 332/19/1
f 333/16/1 334/17/1 335/18/1 336/19/1
f 337/20/1 338/5/1 339/6/1 340/21/1
f 341/11/1 342/20/1 343/21/1 344/12/1
f 345/10/1 346/11/1 347/12/1 348/13/1
f 349/14/1 350/10/1 351/13/1 352/15/1
f 353/16/1 354/17/1 355/18/1 356/19/1
f 357/16/1 358/17/1 359/18/1 360/19/1
f 361/20/1 362/5/1 363/6/1 364/21/1
f 365/11/1 366/20/1 367/21/1 368/12/1
f 369/22/1 370/23/1 371/11/1 372/10/1
f 373/24/1 374/22/1 375/10/1 376/14/1
f 377/16/1 378/17/1 379/18/1 380/19/1
f 381/16/1 382/17/1 383/18/1 384/19/1
f 385/25/1 386/9/1 387/5/1 388/20/1
f 389/23/1 390/25/1 391/20/1 392/11/1
f 393/22/1 394/23/1 395/11/1 396/10/1
f 397/24/1 398/22/1 399/10/1 400/14/1
f 401/16/1 402/17/1 403/18/1 404/19/1
f 405/16/1 406/17/1 407/18/1 408/19/1
f 409/25/1 410/9/1 411/5/1 412/20/1
f 413/23/1 414/25/1 415/20/1 416/11/1
f 417/22/1 418/23/1 419/11/1 420/10/1
f 421/24/1 422/22/1 423/10/1 424/14/1
f 425/16/1 426/17/1 427/18/1 428/19/1
f 429/16/1 430/17/1 431/18/1 432/19/1
f 433/25/1 434/9/1 435/5/1 436/20/1
f 437/23/1 438/25/1 439/20/1 440/11/1
f 441/26/1 442/14/1 443/15/1 444/27/1
f 445/28/1 446/26/1 447/27/1 448/29/1
f 449/32/1 450/33/1 451/34/1 452/35/1
f 453/26/1 454/14/1 455/15/1 456/27/1
f 457/28/1 458/26/1 459/27/1 460/29/1
f 461/26/1 462/14/1 463/15/1 464/27/1
f 465/28/1 466/26/1 467/27/1 468/29/1
f 469/30/1 470/24/1 471/14/1 472/26/1
f 473/31/1 474/30/1 475/26/1 476/28/1
f 477/36/1 478/37/1 479/33/1 480/32/1
f 481/30/1 482/24/1 483/14/1 484/26/1
f 485/31/1 486/30/1 487/26/1 488/28/1
f 489/30/1 490/24/1 491/14/1 492/26/1
f 493/31/1 494/30/1 495/26/1 496/28/1
f 497/1/1 498/2/1 499/3/1 500/4/1
f 501/5/1 502/1/1 503/4/1 504/6/1
f 505/1/1 506/2/1 507/3/1 508/4/1
f 509/5/1 510/1/1 511/4/1 512/6/1
f 513/17/1 514/32/1 515/35/1 516/18/1
f 517/7/1 518/8/1 519/2/1 520/1/1
f 521/9/1 522/7/1 523/1/1 524/5/1
f 525/7/1 526/8/1 527/2/1 528/1/1
f 529/9/1 530/7/1 531/1/1 532/5/1
f 533/38/1 534/36/1 535/32/1 536/17/1
f 537/1/1 538/2/1 539/3/1 540/4/1
f 541/5/1 542/1/1 543/4/1 544/6/1
f 545/32/1 546/33/1 547/34/1 548/35/1
f 549/10/1 550/11/1 551/12/1 552/13/1
f 553/14/1 554/10/1 555/13/1 556/15/1
f 557/16/1 558/17/1 559/18/1 560/19/1
f 561/16/1 562/17/1 563/18/1 564/19/1
f 565/20/1 566/5/1 567/6/1 568/21/1
f 569/11/1 570/20/1 571/21/1 572/12/1
f 573/10/1 574/11/1 575/12/1 576/13/1
f 577/14/1 578/10/1 579/13/1 580/15/1
f 581/16/1 582/17/1 583/18/1 584/19/1
f 585/16/1 586/17/1 587/18/1 588/19/1
f 589/20/1 590/5/1 591/6/1 592/21/1
f 593/11/1 594/20/1 595/21/1 596/12/1
f 597/7/1 598/8/1 599/2/1 600/1/1
f 601/9/1 602/7/1 603/1/1 604/5/1
f 605/36/1 606/37/1 607/33/1 608/32/1
f 609/22/1 610/23/1 611/11/1 612/10/1
f 613/24/1 614/22/1 615/10/1 616/14/1
f 617/16/1 618/17/1 619/18/1 620/19/1
f 621/16/1 622/17/1 623/18/1 624/19/1
f 625/25/1 626/9/1 627/5/1 628/20/1
f 629/23/1 630/25/1 631/20/1 632/11/1
f 633/22/1 634/23/1 635/11/1 636/10/1
f 637/24/1 638/22/1 639/10/1 640/14/1
f 641/16/1 642/17/1 643/18/1 644/19/1
f 645/16/1 646/17/1 647/18/1 648/19/1
f 649/25/1 650/9/1 651/5/1 652/20/1
f 653/23/1 654/25/1 655/20/1 656/11/1
f 657/10/1 658/11/1 659/12/1 660/13/1
f 661/14/1 662/10/1 663/13/1 664/15/1
f 665/16/1 666/17/1 667/18/1 668/19/1
f 669/16/1 670/17/1 671/18/1 672/19/1
f 673/20/1 674/5/1 675/6/1 676/21/1
f 677/11/1 678/20/1 679/21/1 680/12/1
f 681/26/1 682/14/1 683/15/1 684/27/1
f 685/28/1 686/26/1 687/27/1 688/29/1
f 689/26/1 690/14/1 691/15/1 692/27/1
f 693/28/1 694/26/1 695/27/1 696/29/1
f 697/22/1 698/23/1 699/11/1 700/10/1
f 701/24/1 702/22/1 703/10/1 704/14/1
f 705/16/1 706/17/1 707/18/1 708/19/1
f 709/16/1 710/17/1 711/18/1 712/19/1
f 713/25/1 714/9/1 715/5/1 716/20/1
f 717/23/1 718/25/1 719/20/1 720/11/1
f 721/30/1 722/24/1 723/14/1 724/26/1
f 725/31/1 726/30/1 727/26/1 728/28/1
f 729/30/1 730/24/1 731/14/1 732/26/1
f 733/31/1 734/30/1 735/26/1 736/28/1
f 737/26/1 738/14/1 739/15/1 740/27/1
f 741/28/1 742/26/1 743/27/1 744/29/1
f 745/30/1 746/24/1 747/14/1 748/26/1
f 749/31/1 750/30/1 751/26/1 752/28/1
f 753/1/1 754/2/1 755/3/1 756/4/1
f 757/5/1 758/1/1 759/4/1 760/6/1
f 761/7/1 762/8/1 763/2/1 764/1/1
f 765/9/1 766/7/1 767/1/1 768/5/1
f 769/10/1 770/11/1 771/12/1 772/13/1
f 773/14/1 774/10/1 775/13/1 776/15/1
f 777/16/1 778/17/1 779/18/1 780/19/1
f 781/16/1 782/17/1 783/18/1 784/19/1
f 785/20/1 786/5/1 787/6/1 788/21/1
f 789/11/1 790/20/1 791/21/1 792/12/1
f 793/16/1 794/17/1 795/18/1 796/19/1
f 797/16/1 798/17/1 799/18/1 800/19/1
f 801/22/1 802/23/1 803/11/1 804/10/1
f 805/24/1 806/22/1 807/10/1 808/14/1
f 809/16/1 810/17/1 811/18/1 812/19/1
f 813/16/1 814/17/1 815/18/1 816/19/1
f 817/25/1 818/9/1 819/5/1 820/20/1
f 821/23/1 822/25/1 823/20/1 824/11/1
f 825/16/1 826/17/1 827/18/1 828/19/1
f 829/16/1 830/17/1 831/18/1 832/19/1
f 833/26/1 834/14/1 835/15/1 836/27/1
f 837/28/1 838/26/1 839/27/1 840/29/1
f 841/30/1 842/24/1 843/14/1 844/26/1
f 845/31/1 846/30/1 847/26/1 848/28/1

