# Tiled2Unity generated file. Do not modify by hand.
# Wavefront file for 'HunkerMap2_mesh_0002.obj'

# Vertices (Count = 184)
v -283 -16 0
v -284 -16 0
v -284 -15 0
v -283 -15 0
v -282 -16 0
v -283 -16 0
v -283 -15 0
v -282 -15 0
v -281 -16 0
v -282 -16 0
v -282 -15 0
v -281 -15 0
v -280 -16 0
v -281 -16 0
v -281 -15 0
v -280 -15 0
v -279 -16 0
v -280 -16 0
v -280 -15 0
v -279 -15 0
v -278 -16 0
v -279 -16 0
v -279 -15 0
v -278 -15 0
v -277 -16 0
v -278 -16 0
v -278 -15 0
v -277 -15 0
v -284 -17 0
v -285 -17 0
v -285 -16 0
v -284 -16 0
v -283 -17 0
v -284 -17 0
v -284 -16 0
v -283 -16 0
v -282 -17 0
v -283 -17 0
v -283 -16 0
v -282 -16 0
v -281 -17 0
v -282 -17 0
v -282 -16 0
v -281 -16 0
v -280 -17 0
v -281 -17 0
v -281 -16 0
v -280 -16 0
v -278 -17 0
v -279 -17 0
v -279 -16 0
v -278 -16 0
v -277 -17 0
v -278 -17 0
v -278 -16 0
v -277 -16 0
v -285 -18 0
v -286 -18 0
v -286 -17 0
v -285 -17 0
v -284 -18 0
v -285 -18 0
v -285 -17 0
v -284 -17 0
v -283 -18 0
v -284 -18 0
v -284 -17 0
v -283 -17 0
v -282 -18 0
v -283 -18 0
v -283 -17 0
v -282 -17 0
v -281 -18 0
v -282 -18 0
v -282 -17 0
v -281 -17 0
v -280 -18 0
v -281 -18 0
v -281 -17 0
v -280 -17 0
v -279 -18 0
v -280 -18 0
v -280 -17 0
v -279 -17 0
v -278 -18 0
v -279 -18 0
v -279 -17 0
v -278 -17 0
v -286 -19 0
v -287 -19 0
v -287 -18 0
v -286 -18 0
v -285 -19 0
v -286 -19 0
v -286 -18 0
v -285 -18 0
v -284 -19 0
v -285 -19 0
v -285 -18 0
v -284 -18 0
v -283 -19 0
v -284 -19 0
v -284 -18 0
v -283 -18 0
v -281 -19 0
v -282 -19 0
v -282 -18 0
v -281 -18 0
v -280 -19 0
v -281 -19 0
v -281 -18 0
v -280 -18 0
v -279 -19 0
v -280 -19 0
v -280 -18 0
v -279 -18 0
v -278 -19 0
v -279 -19 0
v -279 -18 0
v -278 -18 0
v -286 -20 0
v -287 -20 0
v -287 -19 0
v -286 -19 0
v -285 -20 0
v -286 -20 0
v -286 -19 0
v -285 -19 0
v -283 -20 0
v -284 -20 0
v -284 -19 0
v -283 -19 0
v -282 -20 0
v -283 -20 0
v -283 -19 0
v -282 -19 0
v -281 -20 0
v -282 -20 0
v -282 -19 0
v -281 -19 0
v -280 -20 0
v -281 -20 0
v -281 -19 0
v -280 -19 0
v -279 -20 0
v -280 -20 0
v -280 -19 0
v -279 -19 0
v -278 -20 0
v -279 -20 0
v -279 -19 0
v -278 -19 0
v -281 -21 0
v -282 -21 0
v -282 -20 0
v -281 -20 0
v -280 -21 0
v -281 -21 0
v -281 -20 0
v -280 -20 0
v -279 -21 0
v -280 -21 0
v -280 -20 0
v -279 -20 0
v -278 -21 0
v -279 -21 0
v -279 -20 0
v -278 -20 0
v -399 -24 0
v -400 -24 0
v -400 -23 0
v -399 -23 0
v 0 -24 0
v -1 -24 0
v -1 -23 0
v 0 -23 0
v -399 -25 0
v -400 -25 0
v -400 -24 0
v -399 -24 0
v 0 -25 0
v -1 -25 0
v -1 -24 0
v 0 -24 0

# Texture cooridinates (Count = 11)
vt 0 0.68
vt 0.025 0.68
vt 0.025 0.72
vt 0 0.72
vt 0.025 0.92
vt 0.05 0.92
vt 0.05 0.96
vt 0.025 0.96
vt 0.075 0.96
vt 0.075 1
vt 0.05 1

# Normal
vn 0 0 -1

# Mesh description
g HunkerMap2_mesh_0002

# Faces
f 1/1/1 2/2/1 3/3/1 4/4/1
f 5/1/1 6/2/1 7/3/1 8/4/1
f 9/1/1 10/2/1 11/3/1 12/4/1
f 13/1/1 14/2/1 15/3/1 16/4/1
f 17/1/1 18/2/1 19/3/1 20/4/1
f 21/1/1 22/2/1 23/3/1 24/4/1
f 25/1/1 26/2/1 27/3/1 28/4/1
f 29/1/1 30/2/1 31/3/1 32/4/1
f 33/1/1 34/2/1 35/3/1 36/4/1
f 37/1/1 38/2/1 39/3/1 40/4/1
f 41/1/1 42/2/1 43/3/1 44/4/1
f 45/5/1 46/6/1 47/7/1 48/8/1
f 49/1/1 50/2/1 51/3/1 52/4/1
f 53/1/1 54/2/1 55/3/1 56/4/1
f 57/1/1 58/2/1 59/3/1 60/4/1
f 61/1/1 62/2/1 63/3/1 64/4/1
f 65/1/1 66/2/1 67/3/1 68/4/1
f 69/1/1 70/2/1 71/3/1 72/4/1
f 73/1/1 74/2/1 75/3/1 76/4/1
f 77/1/1 78/2/1 79/3/1 80/4/1
f 81/5/1 82/6/1 83/7/1 84/8/1
f 85/1/1 86/2/1 87/3/1 88/4/1
f 89/1/1 90/2/1 91/3/1 92/4/1
f 93/1/1 94/2/1 95/3/1 96/4/1
f 97/1/1 98/2/1 99/3/1 100/4/1
f 101/5/1 102/6/1 103/7/1 104/8/1
f 105/5/1 106/6/1 107/7/1 108/8/1
f 109/5/1 110/6/1 111/7/1 112/8/1
f 113/5/1 114/6/1 115/7/1 116/8/1
f 117/1/1 118/2/1 119/3/1 120/4/1
f 121/1/1 122/2/1 123/3/1 124/4/1
f 125/1/1 126/2/1 127/3/1 128/4/1
f 129/1/1 130/2/1 131/3/1 132/4/1
f 133/1/1 134/2/1 135/3/1 136/4/1
f 137/1/1 138/2/1 139/3/1 140/4/1
f 141/1/1 142/2/1 143/3/1 144/4/1
f 145/5/1 146/6/1 147/7/1 148/8/1
f 149/1/1 150/2/1 151/3/1 152/4/1
f 153/1/1 154/2/1 155/3/1 156/4/1
f 157/1/1 158/2/1 159/3/1 160/4/1
f 161/1/1 162/2/1 163/3/1 164/4/1
f 165/1/1 166/2/1 167/3/1 168/4/1
f 169/7/1 170/9/1 171/10/1 172/11/1
f 173/7/1 174/9/1 175/10/1 176/11/1
f 177/7/1 178/9/1 179/10/1 180/11/1
f 181/7/1 182/9/1 183/10/1 184/11/1

