# Tiled2Unity generated file. Do not modify by hand.
# Wavefront file for 'HunkerMap4_mesh_0004.obj'

# Vertices (Count = 32)
v -12 -44 0
v -13 -44 0
v -13 -43 0
v -12 -43 0
v -8 -44 0
v -9 -44 0
v -9 -43 0
v -8 -43 0
v -7 -44 0
v -8 -44 0
v -8 -43 0
v -7 -43 0
v -5 -44 0
v -6 -44 0
v -6 -43 0
v -5 -43 0
v -12 -45 0
v -13 -45 0
v -13 -44 0
v -12 -44 0
v -8 -45 0
v -9 -45 0
v -9 -44 0
v -8 -44 0
v -7 -45 0
v -8 -45 0
v -8 -44 0
v -7 -44 0
v -5 -45 0
v -6 -45 0
v -6 -44 0
v -5 -44 0

# Texture cooridinates (Count = 9)
vt 0.375 0.5625
vt 0.4375 0.5625
vt 0.4375 0.625
vt 0.375 0.625
vt 0.3125 0.5625
vt 0.3125 0.625
vt 0.375 0.5
vt 0.4375 0.5
vt 0.3125 0.5

# Normal
vn 0 0 -1

# Mesh description
g HunkerMap4_mesh_0004

# Faces
f 1/1/1 2/2/1 3/3/1 4/4/1
f 5/5/1 6/1/1 7/4/1 8/6/1
f 9/5/1 10/1/1 11/4/1 12/6/1
f 13/1/1 14/2/1 15/3/1 16/4/1
f 17/7/1 18/8/1 19/2/1 20/1/1
f 21/9/1 22/7/1 23/1/1 24/5/1
f 25/9/1 26/7/1 27/1/1 28/5/1
f 29/7/1 30/8/1 31/2/1 32/1/1

