# Tiled2Unity generated file. Do not modify by hand.
# Wavefront file for 'HunkerMap3_mesh_0013.obj'

# Vertices (Count = 16)
v -12 -14 0
v -13 -14 0
v -13 -13 0
v -12 -13 0
v -10 -14 0
v -11 -14 0
v -11 -13 0
v -10 -13 0
v -8 -14 0
v -9 -14 0
v -9 -13 0
v -8 -13 0
v -7 -14 0
v -8 -14 0
v -8 -13 0
v -7 -13 0

# Texture cooridinates (Count = 10)
vt 0.5 0.15
vt 0.5166667 0.15
vt 0.5166667 0.1666667
vt 0.5 0.1666667
vt 0.55 0.1666667
vt 0.5666667 0.1666667
vt 0.5666667 0.1833333
vt 0.55 0.1833333
vt 0.5666667 0.2
vt 0.55 0.2

# Normal
vn 0 0 -1

# Mesh description
g HunkerMap3_mesh_0013

# Faces
f 1/1/1 2/2/1 3/3/1 4/4/1
f 5/5/1 6/6/1 7/7/1 8/8/1
f 9/1/1 10/2/1 11/3/1 12/4/1
f 13/8/1 14/7/1 15/9/1 16/10/1

