# Tiled2Unity generated file. Do not modify by hand.
# Wavefront file for 'HunkerMap3_mesh_0007.obj'

# Vertices (Count = 72)
v -12 -12 0
v -13 -12 0
v -13 -11 0
v -12 -11 0
v -11 -12 0
v -12 -12 0
v -12 -11 0
v -11 -11 0
v -10 -12 0
v -11 -12 0
v -11 -11 0
v -10 -11 0
v -9 -12 0
v -10 -12 0
v -10 -11 0
v -9 -11 0
v -12 -13 0
v -13 -13 0
v -13 -12 0
v -12 -12 0
v -11 -13 0
v -12 -13 0
v -12 -12 0
v -11 -12 0
v -10 -13 0
v -11 -13 0
v -11 -12 0
v -10 -12 0
v -9 -13 0
v -10 -13 0
v -10 -12 0
v -9 -12 0
v -8 -13 0
v -9 -13 0
v -9 -12 0
v -8 -12 0
v -7 -13 0
v -8 -13 0
v -8 -12 0
v -7 -12 0
v -12 -14 0
v -13 -14 0
v -13 -13 0
v -12 -13 0
v -11 -14 0
v -12 -14 0
v -12 -13 0
v -11 -13 0
v -10 -14 0
v -11 -14 0
v -11 -13 0
v -10 -13 0
v -9 -14 0
v -10 -14 0
v -10 -13 0
v -9 -13 0
v -8 -14 0
v -9 -14 0
v -9 -13 0
v -8 -13 0
v -7 -14 0
v -8 -14 0
v -8 -13 0
v -7 -13 0
v -12 -15 0
v -13 -15 0
v -13 -14 0
v -12 -14 0
v -12 -16 0
v -13 -16 0
v -13 -15 0
v -12 -15 0

# Texture cooridinates (Count = 18)
vt 0.3833333 0.9
vt 0.4 0.9
vt 0.4 0.9166667
vt 0.3833333 0.9166667
vt 0.3666667 0.9
vt 0.3666667 0.9166667
vt 0.3833333 0.8833333
vt 0.4 0.8833333
vt 0.3666667 0.8833333
vt 0.3833333 0.95
vt 0.4 0.95
vt 0.4 0.9666666
vt 0.3833333 0.9666666
vt 0.3833333 0.8666667
vt 0.4 0.8666667
vt 0.3666667 0.8666667
vt 0.3833333 0.9333333
vt 0.4 0.9333333

# Normal
vn 0 0 -1

# Mesh description
g HunkerMap3_mesh_0007

# Faces
f 1/1/1 2/2/1 3/3/1 4/4/1
f 5/5/1 6/1/1 7/4/1 8/6/1
f 9/1/1 10/2/1 11/3/1 12/4/1
f 13/5/1 14/1/1 15/4/1 16/6/1
f 17/7/1 18/8/1 19/2/1 20/1/1
f 21/9/1 22/7/1 23/1/1 24/5/1
f 25/7/1 26/8/1 27/2/1 28/1/1
f 29/9/1 30/7/1 31/1/1 32/5/1
f 33/10/1 34/11/1 35/12/1 36/13/1
f 37/10/1 38/11/1 39/12/1 40/13/1
f 41/14/1 42/15/1 43/8/1 44/7/1
f 45/16/1 46/14/1 47/7/1 48/9/1
f 49/14/1 50/15/1 51/8/1 52/7/1
f 53/16/1 54/14/1 55/7/1 56/9/1
f 57/17/1 58/18/1 59/11/1 60/10/1
f 61/17/1 62/18/1 63/11/1 64/10/1
f 65/10/1 66/11/1 67/12/1 68/13/1
f 69/17/1 70/18/1 71/11/1 72/10/1

