# Tiled2Unity generated file. Do not modify by hand.
# Wavefront file for 'HunkerMap3_mesh_0012.obj'

# Vertices (Count = 328)
v -14 -2 0
v -15 -2 0
v -15 -1 0
v -14 -1 0
v -13 -2 0
v -14 -2 0
v -14 -1 0
v -13 -1 0
v -12 -2 0
v -13 -2 0
v -13 -1 0
v -12 -1 0
v -11 -2 0
v -12 -2 0
v -12 -1 0
v -11 -1 0
v -10 -2 0
v -11 -2 0
v -11 -1 0
v -10 -1 0
v -9 -2 0
v -10 -2 0
v -10 -1 0
v -9 -1 0
v -8 -2 0
v -9 -2 0
v -9 -1 0
v -8 -1 0
v -7 -2 0
v -8 -2 0
v -8 -1 0
v -7 -1 0
v -6 -2 0
v -7 -2 0
v -7 -1 0
v -6 -1 0
v -5 -2 0
v -6 -2 0
v -6 -1 0
v -5 -1 0
v -4 -2 0
v -5 -2 0
v -5 -1 0
v -4 -1 0
v -3 -2 0
v -4 -2 0
v -4 -1 0
v -3 -1 0
v -2 -2 0
v -3 -2 0
v -3 -1 0
v -2 -1 0
v -1 -2 0
v -2 -2 0
v -2 -1 0
v -1 -1 0
v -14 -3 0
v -15 -3 0
v -15 -2 0
v -14 -2 0
v -13 -3 0
v -14 -3 0
v -14 -2 0
v -13 -2 0
v -12 -3 0
v -13 -3 0
v -13 -2 0
v -12 -2 0
v -11 -3 0
v -12 -3 0
v -12 -2 0
v -11 -2 0
v -10 -3 0
v -11 -3 0
v -11 -2 0
v -10 -2 0
v -9 -3 0
v -10 -3 0
v -10 -2 0
v -9 -2 0
v -8 -3 0
v -9 -3 0
v -9 -2 0
v -8 -2 0
v -7 -3 0
v -8 -3 0
v -8 -2 0
v -7 -2 0
v -6 -3 0
v -7 -3 0
v -7 -2 0
v -6 -2 0
v -5 -3 0
v -6 -3 0
v -6 -2 0
v -5 -2 0
v -4 -3 0
v -5 -3 0
v -5 -2 0
v -4 -2 0
v -3 -3 0
v -4 -3 0
v -4 -2 0
v -3 -2 0
v -2 -3 0
v -3 -3 0
v -3 -2 0
v -2 -2 0
v -1 -3 0
v -2 -3 0
v -2 -2 0
v -1 -2 0
v -14 -4 0
v -15 -4 0
v -15 -3 0
v -14 -3 0
v -13 -4 0
v -14 -4 0
v -14 -3 0
v -13 -3 0
v -12 -4 0
v -13 -4 0
v -13 -3 0
v -12 -3 0
v -11 -4 0
v -12 -4 0
v -12 -3 0
v -11 -3 0
v -10 -4 0
v -11 -4 0
v -11 -3 0
v -10 -3 0
v -9 -4 0
v -10 -4 0
v -10 -3 0
v -9 -3 0
v -8 -4 0
v -9 -4 0
v -9 -3 0
v -8 -3 0
v -7 -4 0
v -8 -4 0
v -8 -3 0
v -7 -3 0
v -6 -4 0
v -7 -4 0
v -7 -3 0
v -6 -3 0
v -5 -4 0
v -6 -4 0
v -6 -3 0
v -5 -3 0
v -4 -4 0
v -5 -4 0
v -5 -3 0
v -4 -3 0
v -3 -4 0
v -4 -4 0
v -4 -3 0
v -3 -3 0
v -2 -4 0
v -3 -4 0
v -3 -3 0
v -2 -3 0
v -1 -4 0
v -2 -4 0
v -2 -3 0
v -1 -3 0
v -14 -5 0
v -15 -5 0
v -15 -4 0
v -14 -4 0
v -13 -5 0
v -14 -5 0
v -14 -4 0
v -13 -4 0
v -12 -5 0
v -13 -5 0
v -13 -4 0
v -12 -4 0
v -11 -5 0
v -12 -5 0
v -12 -4 0
v -11 -4 0
v -10 -5 0
v -11 -5 0
v -11 -4 0
v -10 -4 0
v -9 -5 0
v -10 -5 0
v -10 -4 0
v -9 -4 0
v -8 -5 0
v -9 -5 0
v -9 -4 0
v -8 -4 0
v -7 -5 0
v -8 -5 0
v -8 -4 0
v -7 -4 0
v -6 -5 0
v -7 -5 0
v -7 -4 0
v -6 -4 0
v -5 -5 0
v -6 -5 0
v -6 -4 0
v -5 -4 0
v -4 -5 0
v -5 -5 0
v -5 -4 0
v -4 -4 0
v -3 -5 0
v -4 -5 0
v -4 -4 0
v -3 -4 0
v -2 -5 0
v -3 -5 0
v -3 -4 0
v -2 -4 0
v -1 -5 0
v -2 -5 0
v -2 -4 0
v -1 -4 0
v -6 -12 0
v -7 -12 0
v -7 -11 0
v -6 -11 0
v -5 -12 0
v -6 -12 0
v -6 -11 0
v -5 -11 0
v -6 -13 0
v -7 -13 0
v -7 -12 0
v -6 -12 0
v -5 -13 0
v -6 -13 0
v -6 -12 0
v -5 -12 0
v -6 -14 0
v -7 -14 0
v -7 -13 0
v -6 -13 0
v -5 -14 0
v -6 -14 0
v -6 -13 0
v -5 -13 0
v -3 -18 0
v -4 -18 0
v -4 -17 0
v -3 -17 0
v -2 -18 0
v -3 -18 0
v -3 -17 0
v -2 -17 0
v -1 -18 0
v -2 -18 0
v -2 -17 0
v -1 -17 0
v 0 -18 0
v -1 -18 0
v -1 -17 0
v 0 -17 0
v -3 -19 0
v -4 -19 0
v -4 -18 0
v -3 -18 0
v -2 -19 0
v -3 -19 0
v -3 -18 0
v -2 -18 0
v -1 -19 0
v -2 -19 0
v -2 -18 0
v -1 -18 0
v 0 -19 0
v -1 -19 0
v -1 -18 0
v 0 -18 0
v -5 -20 0
v -6 -20 0
v -6 -19 0
v -5 -19 0
v -4 -20 0
v -5 -20 0
v -5 -19 0
v -4 -19 0
v -3 -20 0
v -4 -20 0
v -4 -19 0
v -3 -19 0
v -2 -20 0
v -3 -20 0
v -3 -19 0
v -2 -19 0
v -5 -21 0
v -6 -21 0
v -6 -20 0
v -5 -20 0
v -4 -21 0
v -5 -21 0
v -5 -20 0
v -4 -20 0
v -3 -21 0
v -4 -21 0
v -4 -20 0
v -3 -20 0
v -2 -21 0
v -3 -21 0
v -3 -20 0
v -2 -20 0
v -4 -22 0
v -5 -22 0
v -5 -21 0
v -4 -21 0
v -3 -22 0
v -4 -22 0
v -4 -21 0
v -3 -21 0
v -4 -23 0
v -5 -23 0
v -5 -22 0
v -4 -22 0
v -3 -23 0
v -4 -23 0
v -4 -22 0
v -3 -22 0

# Texture cooridinates (Count = 80)
vt 0.2833333 0.45
vt 0.3 0.45
vt 0.3 0.4666666
vt 0.2833333 0.4666666
vt 0.2666667 0.45
vt 0.2666667 0.4666666
vt 0.9166667 0.95
vt 0.9333333 0.95
vt 0.9333333 0.9666666
vt 0.9166667 0.9666666
vt 0.9 0.95
vt 0.9 0.9666666
vt 0.85 0.95
vt 0.8666667 0.95
vt 0.8666667 0.9666666
vt 0.85 0.9666666
vt 0.8333333 0.95
vt 0.8333333 0.9666666
vt 0.8166667 0.95
vt 0.8166667 0.9666666
vt 0.8 0.95
vt 0.8 0.9666666
vt 0.7833334 0.95
vt 0.7833334 0.9666666
vt 0.7666667 0.95
vt 0.7666667 0.9666666
vt 0.2833333 0.4333333
vt 0.3 0.4333333
vt 0.2666667 0.4333333
vt 0.9166667 0.9333333
vt 0.9333333 0.9333333
vt 0.9 0.9333333
vt 0.85 0.9333333
vt 0.8666667 0.9333333
vt 0.8333333 0.9333333
vt 0.8166667 0.9333333
vt 0.8 0.9333333
vt 0.7833334 0.9333333
vt 0.7666667 0.9333333
vt 0.9166667 0.9166667
vt 0.9333333 0.9166667
vt 0.9 0.9166667
vt 0.85 0.9166667
vt 0.8666667 0.9166667
vt 0.8333333 0.9166667
vt 0.8166667 0.9166667
vt 0.8 0.9166667
vt 0.7833334 0.9166667
vt 0.7666667 0.9166667
vt 0.9166667 0.9
vt 0.9333333 0.9
vt 0.9 0.9
vt 0.85 0.9
vt 0.8666667 0.9
vt 0.8333333 0.9
vt 0.8166667 0.9
vt 0.8 0.9
vt 0.7833334 0.9
vt 0.7666667 0.9
vt 0.3833333 0.9
vt 0.4 0.9
vt 0.4 0.9166667
vt 0.3833333 0.9166667
vt 0.3666667 0.9
vt 0.3666667 0.9166667
vt 0.3833333 0.8833333
vt 0.4 0.8833333
vt 0.3666667 0.8833333
vt 0.3833333 0.8666667
vt 0.4 0.8666667
vt 0.3666667 0.8666667
vt 0.45 0.45
vt 0.4666667 0.45
vt 0.4666667 0.4666666
vt 0.45 0.4666666
vt 0.4333333 0.45
vt 0.4333333 0.4666666
vt 0.45 0.4333333
vt 0.4666667 0.4333333
vt 0.4333333 0.4333333

# Normal
vn 0 0 -1

# Mesh description
g HunkerMap3_mesh_0012

# Faces
f 1/1/1 2/2/1 3/3/1 4/4/1
f 5/5/1 6/1/1 7/4/1 8/6/1
f 9/1/1 10/2/1 11/3/1 12/4/1
f 13/5/1 14/1/1 15/4/1 16/6/1
f 17/1/1 18/2/1 19/3/1 20/4/1
f 21/5/1 22/1/1 23/4/1 24/6/1
f 25/7/1 26/8/1 27/9/1 28/10/1
f 29/11/1 30/7/1 31/10/1 32/12/1
f 33/13/1 34/14/1 35/15/1 36/16/1
f 37/17/1 38/13/1 39/16/1 40/18/1
f 41/19/1 42/17/1 43/18/1 44/20/1
f 45/21/1 46/19/1 47/20/1 48/22/1
f 49/23/1 50/21/1 51/22/1 52/24/1
f 53/25/1 54/23/1 55/24/1 56/26/1
f 57/27/1 58/28/1 59/2/1 60/1/1
f 61/29/1 62/27/1 63/1/1 64/5/1
f 65/27/1 66/28/1 67/2/1 68/1/1
f 69/29/1 70/27/1 71/1/1 72/5/1
f 73/27/1 74/28/1 75/2/1 76/1/1
f 77/29/1 78/27/1 79/1/1 80/5/1
f 81/30/1 82/31/1 83/8/1 84/7/1
f 85/32/1 86/30/1 87/7/1 88/11/1
f 89/33/1 90/34/1 91/14/1 92/13/1
f 93/35/1 94/33/1 95/13/1 96/17/1
f 97/36/1 98/35/1 99/17/1 100/19/1
f 101/37/1 102/36/1 103/19/1 104/21/1
f 105/38/1 106/37/1 107/21/1 108/23/1
f 109/39/1 110/38/1 111/23/1 112/25/1
f 113/1/1 114/2/1 115/3/1 116/4/1
f 117/5/1 118/1/1 119/4/1 120/6/1
f 121/1/1 122/2/1 123/3/1 124/4/1
f 125/5/1 126/1/1 127/4/1 128/6/1
f 129/1/1 130/2/1 131/3/1 132/4/1
f 133/5/1 134/1/1 135/4/1 136/6/1
f 137/40/1 138/41/1 139/31/1 140/30/1
f 141/42/1 142/40/1 143/30/1 144/32/1
f 145/43/1 146/44/1 147/34/1 148/33/1
f 149/45/1 150/43/1 151/33/1 152/35/1
f 153/46/1 154/45/1 155/35/1 156/36/1
f 157/47/1 158/46/1 159/36/1 160/37/1
f 161/48/1 162/47/1 163/37/1 164/38/1
f 165/49/1 166/48/1 167/38/1 168/39/1
f 169/27/1 170/28/1 171/2/1 172/1/1
f 173/29/1 174/27/1 175/1/1 176/5/1
f 177/27/1 178/28/1 179/2/1 180/1/1
f 181/29/1 182/27/1 183/1/1 184/5/1
f 185/27/1 186/28/1 187/2/1 188/1/1
f 189/29/1 190/27/1 191/1/1 192/5/1
f 193/50/1 194/51/1 195/41/1 196/40/1
f 197/52/1 198/50/1 199/40/1 200/42/1
f 201/53/1 202/54/1 203/44/1 204/43/1
f 205/55/1 206/53/1 207/43/1 208/45/1
f 209/56/1 210/55/1 211/45/1 212/46/1
f 213/57/1 214/56/1 215/46/1 216/47/1
f 217/58/1 218/57/1 219/47/1 220/48/1
f 221/59/1 222/58/1 223/48/1 224/49/1
f 225/60/1 226/61/1 227/62/1 228/63/1
f 229/64/1 230/60/1 231/63/1 232/65/1
f 233/66/1 234/67/1 235/61/1 236/60/1
f 237/68/1 238/66/1 239/60/1 240/64/1
f 241/69/1 242/70/1 243/67/1 244/66/1
f 245/71/1 246/69/1 247/66/1 248/68/1
f 249/72/1 250/73/1 251/74/1 252/75/1
f 253/76/1 254/72/1 255/75/1 256/77/1
f 257/72/1 258/73/1 259/74/1 260/75/1
f 261/76/1 262/72/1 263/75/1 264/77/1
f 265/78/1 266/79/1 267/73/1 268/72/1
f 269/80/1 270/78/1 271/72/1 272/76/1
f 273/78/1 274/79/1 275/73/1 276/72/1
f 277/80/1 278/78/1 279/72/1 280/76/1
f 281/72/1 282/73/1 283/74/1 284/75/1
f 285/76/1 286/72/1 287/75/1 288/77/1
f 289/72/1 290/73/1 291/74/1 292/75/1
f 293/76/1 294/72/1 295/75/1 296/77/1
f 297/78/1 298/79/1 299/73/1 300/72/1
f 301/80/1 302/78/1 303/72/1 304/76/1
f 305/78/1 306/79/1 307/73/1 308/72/1
f 309/80/1 310/78/1 311/72/1 312/76/1
f 313/72/1 314/73/1 315/74/1 316/75/1
f 317/76/1 318/72/1 319/75/1 320/77/1
f 321/78/1 322/79/1 323/73/1 324/72/1
f 325/80/1 326/78/1 327/72/1 328/76/1

