# Tiled2Unity generated file. Do not modify by hand.
# Wavefront file for 'HunkerMap3_mesh_0008.obj'

# Vertices (Count = 188)
v -25 -19 0
v -26 -19 0
v -26 -18 0
v -25 -18 0
v -24 -19 0
v -25 -19 0
v -25 -18 0
v -24 -18 0
v -25 -20 0
v -26 -20 0
v -26 -19 0
v -25 -19 0
v -24 -20 0
v -25 -20 0
v -25 -19 0
v -24 -19 0
v -17 -20 0
v -18 -20 0
v -18 -19 0
v -17 -19 0
v -16 -20 0
v -17 -20 0
v -17 -19 0
v -16 -19 0
v -25 -21 0
v -26 -21 0
v -26 -20 0
v -25 -20 0
v -24 -21 0
v -25 -21 0
v -25 -20 0
v -24 -20 0
v -17 -21 0
v -18 -21 0
v -18 -20 0
v -17 -20 0
v -16 -21 0
v -17 -21 0
v -17 -20 0
v -16 -20 0
v -25 -22 0
v -26 -22 0
v -26 -21 0
v -25 -21 0
v -24 -22 0
v -25 -22 0
v -25 -21 0
v -24 -21 0
v -17 -22 0
v -18 -22 0
v -18 -21 0
v -17 -21 0
v -16 -22 0
v -17 -22 0
v -17 -21 0
v -16 -21 0
v -23 -23 0
v -24 -23 0
v -24 -22 0
v -23 -22 0
v -22 -23 0
v -23 -23 0
v -23 -22 0
v -22 -22 0
v -19 -23 0
v -20 -23 0
v -20 -22 0
v -19 -22 0
v -18 -23 0
v -19 -23 0
v -19 -22 0
v -18 -22 0
v -17 -23 0
v -18 -23 0
v -18 -22 0
v -17 -22 0
v -16 -23 0
v -17 -23 0
v -17 -22 0
v -16 -22 0
v -23 -24 0
v -24 -24 0
v -24 -23 0
v -23 -23 0
v -22 -24 0
v -23 -24 0
v -23 -23 0
v -22 -23 0
v -19 -24 0
v -20 -24 0
v -20 -23 0
v -19 -23 0
v -18 -24 0
v -19 -24 0
v -19 -23 0
v -18 -23 0
v -25 -25 0
v -26 -25 0
v -26 -24 0
v -25 -24 0
v -24 -25 0
v -25 -25 0
v -25 -24 0
v -24 -24 0
v -17 -25 0
v -18 -25 0
v -18 -24 0
v -17 -24 0
v -16 -25 0
v -17 -25 0
v -17 -24 0
v -16 -24 0
v -25 -26 0
v -26 -26 0
v -26 -25 0
v -25 -25 0
v -24 -26 0
v -25 -26 0
v -25 -25 0
v -24 -25 0
v -23 -26 0
v -24 -26 0
v -24 -25 0
v -23 -25 0
v -22 -26 0
v -23 -26 0
v -23 -25 0
v -22 -25 0
v -19 -26 0
v -20 -26 0
v -20 -25 0
v -19 -25 0
v -18 -26 0
v -19 -26 0
v -19 -25 0
v -18 -25 0
v -17 -26 0
v -18 -26 0
v -18 -25 0
v -17 -25 0
v -16 -26 0
v -17 -26 0
v -17 -25 0
v -16 -25 0
v -25 -27 0
v -26 -27 0
v -26 -26 0
v -25 -26 0
v -24 -27 0
v -25 -27 0
v -25 -26 0
v -24 -26 0
v -23 -27 0
v -24 -27 0
v -24 -26 0
v -23 -26 0
v -22 -27 0
v -23 -27 0
v -23 -26 0
v -22 -26 0
v -19 -27 0
v -20 -27 0
v -20 -26 0
v -19 -26 0
v -18 -27 0
v -19 -27 0
v -19 -26 0
v -18 -26 0
v -17 -27 0
v -18 -27 0
v -18 -26 0
v -17 -26 0
v -25 -28 0
v -26 -28 0
v -26 -27 0
v -25 -27 0
v -24 -28 0
v -25 -28 0
v -25 -27 0
v -24 -27 0
v -17 -28 0
v -18 -28 0
v -18 -27 0
v -17 -27 0
v -16 -28 0
v -17 -28 0
v -17 -27 0
v -16 -27 0

# Texture cooridinates (Count = 40)
vt 0.45 0.5166667
vt 0.4666667 0.5166667
vt 0.4666667 0.5333333
vt 0.45 0.5333333
vt 0.4333333 0.5166667
vt 0.4333333 0.5333333
vt 0.45 0.5
vt 0.4666667 0.5
vt 0.4333333 0.5
vt 0.4166667 0.5166667
vt 0.4166667 0.5333333
vt 0.4 0.5166667
vt 0.4 0.5333333
vt 0.45 0.4833333
vt 0.4666667 0.4833333
vt 0.4333333 0.4833333
vt 0.4166667 0.5
vt 0.4 0.5
vt 0.45 0.4666666
vt 0.4666667 0.4666666
vt 0.4333333 0.4666666
vt 0.4166667 0.4833333
vt 0.4 0.4833333
vt 0.2166667 0.8166667
vt 0.2333333 0.8166667
vt 0.2333333 0.8333333
vt 0.2166667 0.8333333
vt 0.2 0.8166667
vt 0.2 0.8333333
vt 0.2166667 0.7833333
vt 0.2333333 0.7833333
vt 0.2333333 0.8
vt 0.2166667 0.8
vt 0.2 0.7833333
vt 0.2 0.8
vt 0.4166667 0.4666666
vt 0.4 0.4666666
vt 0.2166667 0.7666667
vt 0.2333333 0.7666667
vt 0.2 0.7666667

# Normal
vn 0 0 -1

# Mesh description
g HunkerMap3_mesh_0008

# Faces
f 1/1/1 2/2/1 3/3/1 4/4/1
f 5/5/1 6/1/1 7/4/1 8/6/1
f 9/7/1 10/8/1 11/2/1 12/1/1
f 13/9/1 14/7/1 15/1/1 16/5/1
f 17/10/1 18/5/1 19/6/1 20/11/1
f 21/12/1 22/10/1 23/11/1 24/13/1
f 25/14/1 26/15/1 27/8/1 28/7/1
f 29/16/1 30/14/1 31/7/1 32/9/1
f 33/17/1 34/9/1 35/5/1 36/10/1
f 37/18/1 38/17/1 39/10/1 40/12/1
f 41/19/1 42/20/1 43/15/1 44/14/1
f 45/21/1 46/19/1 47/14/1 48/16/1
f 49/22/1 50/16/1 51/9/1 52/17/1
f 53/23/1 54/22/1 55/17/1 56/18/1
f 57/24/1 58/25/1 59/26/1 60/27/1
f 61/28/1 62/24/1 63/27/1 64/29/1
f 65/30/1 66/31/1 67/32/1 68/33/1
f 69/34/1 70/30/1 71/33/1 72/35/1
f 73/36/1 74/21/1 75/16/1 76/22/1
f 77/37/1 78/36/1 79/22/1 80/23/1
f 81/33/1 82/32/1 83/25/1 84/24/1
f 85/35/1 86/33/1 87/24/1 88/28/1
f 89/38/1 90/39/1 91/31/1 92/30/1
f 93/40/1 94/38/1 95/30/1 96/34/1
f 97/10/1 98/5/1 99/6/1 100/11/1
f 101/12/1 102/10/1 103/11/1 104/13/1
f 105/1/1 106/2/1 107/3/1 108/4/1
f 109/5/1 110/1/1 111/4/1 112/6/1
f 113/17/1 114/9/1 115/5/1 116/10/1
f 117/18/1 118/17/1 119/10/1 120/12/1
f 121/30/1 122/31/1 123/32/1 124/33/1
f 125/34/1 126/30/1 127/33/1 128/35/1
f 129/24/1 130/25/1 131/26/1 132/27/1
f 133/28/1 134/24/1 135/27/1 136/29/1
f 137/7/1 138/8/1 139/2/1 140/1/1
f 141/9/1 142/7/1 143/1/1 144/5/1
f 145/22/1 146/16/1 147/9/1 148/17/1
f 149/23/1 150/22/1 151/17/1 152/18/1
f 153/38/1 154/39/1 155/31/1 156/30/1
f 157/40/1 158/38/1 159/30/1 160/34/1
f 161/33/1 162/32/1 163/25/1 164/24/1
f 165/35/1 166/33/1 167/24/1 168/28/1
f 169/14/1 170/15/1 171/8/1 172/7/1
f 173/36/1 174/21/1 175/16/1 176/22/1
f 177/37/1 178/36/1 179/22/1 180/23/1
f 181/19/1 182/20/1 183/15/1 184/14/1
f 185/21/1 186/19/1 187/14/1 188/16/1

