# Tiled2Unity generated file. Do not modify by hand.
# Wavefront file for 'HunkerMap3_mesh_0005.obj'

# Vertices (Count = 872)
v 0 -3 0
v -1 -3 0
v -1 -2 0
v 0 -2 0
v 0 -4 0
v -1 -4 0
v -1 -3 0
v 0 -3 0
v 0 -5 0
v -1 -5 0
v -1 -4 0
v 0 -4 0
v 0 -6 0
v -1 -6 0
v -1 -5 0
v 0 -5 0
v 0 -7 0
v -1 -7 0
v -1 -6 0
v 0 -6 0
v 0 -8 0
v -1 -8 0
v -1 -7 0
v 0 -7 0
v 0 -9 0
v -1 -9 0
v -1 -8 0
v 0 -8 0
v 0 -10 0
v -1 -10 0
v -1 -9 0
v 0 -9 0
v 0 -11 0
v -1 -11 0
v -1 -10 0
v 0 -10 0
v -13 -12 0
v -14 -12 0
v -14 -11 0
v -13 -11 0
v -12 -12 0
v -13 -12 0
v -13 -11 0
v -12 -11 0
v -11 -12 0
v -12 -12 0
v -12 -11 0
v -11 -11 0
v -10 -12 0
v -11 -12 0
v -11 -11 0
v -10 -11 0
v -9 -12 0
v -10 -12 0
v -10 -11 0
v -9 -11 0
v -8 -12 0
v -9 -12 0
v -9 -11 0
v -8 -11 0
v -7 -12 0
v -8 -12 0
v -8 -11 0
v -7 -11 0
v -6 -12 0
v -7 -12 0
v -7 -11 0
v -6 -11 0
v -5 -12 0
v -6 -12 0
v -6 -11 0
v -5 -11 0
v 0 -12 0
v -1 -12 0
v -1 -11 0
v 0 -11 0
v 0 -13 0
v -1 -13 0
v -1 -12 0
v 0 -12 0
v 0 -14 0
v -1 -14 0
v -1 -13 0
v 0 -13 0
v 0 -15 0
v -1 -15 0
v -1 -14 0
v 0 -14 0
v 0 -16 0
v -1 -16 0
v -1 -15 0
v 0 -15 0
v 0 -17 0
v -1 -17 0
v -1 -16 0
v 0 -16 0
v 0 -18 0
v -1 -18 0
v -1 -17 0
v 0 -17 0
v 0 -19 0
v -1 -19 0
v -1 -18 0
v 0 -18 0
v -45 -20 0
v -46 -20 0
v -46 -19 0
v -45 -19 0
v 0 -20 0
v -1 -20 0
v -1 -19 0
v 0 -19 0
v -46 -21 0
v -47 -21 0
v -47 -20 0
v -46 -20 0
v -45 -21 0
v -46 -21 0
v -46 -20 0
v -45 -20 0
v 0 -21 0
v -1 -21 0
v -1 -20 0
v 0 -20 0
v -47 -22 0
v -48 -22 0
v -48 -21 0
v -47 -21 0
v -46 -22 0
v -47 -22 0
v -47 -21 0
v -46 -21 0
v -45 -22 0
v -46 -22 0
v -46 -21 0
v -45 -21 0
v -44 -22 0
v -45 -22 0
v -45 -21 0
v -44 -21 0
v 0 -22 0
v -1 -22 0
v -1 -21 0
v 0 -21 0
v -49 -23 0
v -50 -23 0
v -50 -22 0
v -49 -22 0
v -48 -23 0
v -49 -23 0
v -49 -22 0
v -48 -22 0
v -47 -23 0
v -48 -23 0
v -48 -22 0
v -47 -22 0
v -44 -23 0
v -45 -23 0
v -45 -22 0
v -44 -22 0
v -43 -23 0
v -44 -23 0
v -44 -22 0
v -43 -22 0
v 0 -23 0
v -1 -23 0
v -1 -22 0
v 0 -22 0
v -49 -24 0
v -50 -24 0
v -50 -23 0
v -49 -23 0
v -47 -24 0
v -48 -24 0
v -48 -23 0
v -47 -23 0
v -43 -24 0
v -44 -24 0
v -44 -23 0
v -43 -23 0
v -42 -24 0
v -43 -24 0
v -43 -23 0
v -42 -23 0
v -4 -24 0
v -5 -24 0
v -5 -23 0
v -4 -23 0
v -3 -24 0
v -4 -24 0
v -4 -23 0
v -3 -23 0
v -2 -24 0
v -3 -24 0
v -3 -23 0
v -2 -23 0
v -1 -24 0
v -2 -24 0
v -2 -23 0
v -1 -23 0
v 0 -24 0
v -1 -24 0
v -1 -23 0
v 0 -23 0
v -49 -25 0
v -50 -25 0
v -50 -24 0
v -49 -24 0
v 0 -25 0
v -1 -25 0
v -1 -24 0
v 0 -24 0
v -49 -26 0
v -50 -26 0
v -50 -25 0
v -49 -25 0
v 0 -26 0
v -1 -26 0
v -1 -25 0
v 0 -25 0
v -49 -27 0
v -50 -27 0
v -50 -26 0
v -49 -26 0
v -47 -27 0
v -48 -27 0
v -48 -26 0
v -47 -26 0
v -43 -27 0
v -44 -27 0
v -44 -26 0
v -43 -26 0
v -42 -27 0
v -43 -27 0
v -43 -26 0
v -42 -26 0
v -4 -27 0
v -5 -27 0
v -5 -26 0
v -4 -26 0
v -3 -27 0
v -4 -27 0
v -4 -26 0
v -3 -26 0
v -2 -27 0
v -3 -27 0
v -3 -26 0
v -2 -26 0
v -1 -27 0
v -2 -27 0
v -2 -26 0
v -1 -26 0
v 0 -27 0
v -1 -27 0
v -1 -26 0
v 0 -26 0
v -49 -28 0
v -50 -28 0
v -50 -27 0
v -49 -27 0
v -48 -28 0
v -49 -28 0
v -49 -27 0
v -48 -27 0
v -47 -28 0
v -48 -28 0
v -48 -27 0
v -47 -27 0
v -44 -28 0
v -45 -28 0
v -45 -27 0
v -44 -27 0
v -43 -28 0
v -44 -28 0
v -44 -27 0
v -43 -27 0
v 0 -28 0
v -1 -28 0
v -1 -27 0
v 0 -27 0
v -49 -29 0
v -50 -29 0
v -50 -28 0
v -49 -28 0
v -48 -29 0
v -49 -29 0
v -49 -28 0
v -48 -28 0
v -47 -29 0
v -48 -29 0
v -48 -28 0
v -47 -28 0
v -46 -29 0
v -47 -29 0
v -47 -28 0
v -46 -28 0
v -45 -29 0
v -46 -29 0
v -46 -28 0
v -45 -28 0
v -44 -29 0
v -45 -29 0
v -45 -28 0
v -44 -28 0
v 0 -29 0
v -1 -29 0
v -1 -28 0
v 0 -28 0
v -49 -30 0
v -50 -30 0
v -50 -29 0
v -49 -29 0
v -48 -30 0
v -49 -30 0
v -49 -29 0
v -48 -29 0
v 0 -30 0
v -1 -30 0
v -1 -29 0
v 0 -29 0
v -49 -31 0
v -50 -31 0
v -50 -30 0
v -49 -30 0
v 0 -31 0
v -1 -31 0
v -1 -30 0
v 0 -30 0
v -49 -32 0
v -50 -32 0
v -50 -31 0
v -49 -31 0
v 0 -32 0
v -1 -32 0
v -1 -31 0
v 0 -31 0
v -49 -33 0
v -50 -33 0
v -50 -32 0
v -49 -32 0
v 0 -33 0
v -1 -33 0
v -1 -32 0
v 0 -32 0
v -49 -34 0
v -50 -34 0
v -50 -33 0
v -49 -33 0
v -30 -34 0
v -31 -34 0
v -31 -33 0
v -30 -33 0
v 0 -34 0
v -1 -34 0
v -1 -33 0
v 0 -33 0
v -49 -35 0
v -50 -35 0
v -50 -34 0
v -49 -34 0
v -40 -35 0
v -41 -35 0
v -41 -34 0
v -40 -34 0
v -27 -35 0
v -28 -35 0
v -28 -34 0
v -27 -34 0
v -21 -35 0
v -22 -35 0
v -22 -34 0
v -21 -34 0
v -12 -35 0
v -13 -35 0
v -13 -34 0
v -12 -34 0
v 0 -35 0
v -1 -35 0
v -1 -34 0
v 0 -34 0
v -49 -36 0
v -50 -36 0
v -50 -35 0
v -49 -35 0
v -33 -36 0
v -34 -36 0
v -34 -35 0
v -33 -35 0
v 0 -36 0
v -1 -36 0
v -1 -35 0
v 0 -35 0
v -49 -37 0
v -50 -37 0
v -50 -36 0
v -49 -36 0
v -44 -37 0
v -45 -37 0
v -45 -36 0
v -44 -36 0
v -29 -37 0
v -30 -37 0
v -30 -36 0
v -29 -36 0
v -15 -37 0
v -16 -37 0
v -16 -36 0
v -15 -36 0
v -3 -37 0
v -4 -37 0
v -4 -36 0
v -3 -36 0
v 0 -37 0
v -1 -37 0
v -1 -36 0
v 0 -36 0
v -49 -38 0
v -50 -38 0
v -50 -37 0
v -49 -37 0
v -25 -38 0
v -26 -38 0
v -26 -37 0
v -25 -37 0
v -20 -38 0
v -21 -38 0
v -21 -37 0
v -20 -37 0
v -8 -38 0
v -9 -38 0
v -9 -37 0
v -8 -37 0
v 0 -38 0
v -1 -38 0
v -1 -37 0
v 0 -37 0
v -49 -39 0
v -50 -39 0
v -50 -38 0
v -49 -38 0
v -47 -39 0
v -48 -39 0
v -48 -38 0
v -47 -38 0
v -35 -39 0
v -36 -39 0
v -36 -38 0
v -35 -38 0
v -30 -39 0
v -31 -39 0
v -31 -38 0
v -30 -38 0
v 0 -39 0
v -1 -39 0
v -1 -38 0
v 0 -38 0
v -49 -40 0
v -50 -40 0
v -50 -39 0
v -49 -39 0
v -41 -40 0
v -42 -40 0
v -42 -39 0
v -41 -39 0
v -12 -40 0
v -13 -40 0
v -13 -39 0
v -12 -39 0
v -6 -40 0
v -7 -40 0
v -7 -39 0
v -6 -39 0
v 0 -40 0
v -1 -40 0
v -1 -39 0
v 0 -39 0
v -49 -41 0
v -50 -41 0
v -50 -40 0
v -49 -40 0
v -39 -41 0
v -40 -41 0
v -40 -40 0
v -39 -40 0
v -21 -41 0
v -22 -41 0
v -22 -40 0
v -21 -40 0
v -16 -41 0
v -17 -41 0
v -17 -40 0
v -16 -40 0
v -2 -41 0
v -3 -41 0
v -3 -40 0
v -2 -40 0
v 0 -41 0
v -1 -41 0
v -1 -40 0
v 0 -40 0
v -49 -42 0
v -50 -42 0
v -50 -41 0
v -49 -41 0
v -28 -42 0
v -29 -42 0
v -29 -41 0
v -28 -41 0
v 0 -42 0
v -1 -42 0
v -1 -41 0
v 0 -41 0
v -49 -43 0
v -50 -43 0
v -50 -42 0
v -49 -42 0
v -40 -43 0
v -41 -43 0
v -41 -42 0
v -40 -42 0
v -31 -43 0
v -32 -43 0
v -32 -42 0
v -31 -42 0
v -24 -43 0
v -25 -43 0
v -25 -42 0
v -24 -42 0
v -12 -43 0
v -13 -43 0
v -13 -42 0
v -12 -42 0
v 0 -43 0
v -1 -43 0
v -1 -42 0
v 0 -42 0
v -49 -44 0
v -50 -44 0
v -50 -43 0
v -49 -43 0
v -48 -44 0
v -49 -44 0
v -49 -43 0
v -48 -43 0
v -35 -44 0
v -36 -44 0
v -36 -43 0
v -35 -43 0
v -20 -44 0
v -21 -44 0
v -21 -43 0
v -20 -43 0
v -16 -44 0
v -17 -44 0
v -17 -43 0
v -16 -43 0
v -4 -44 0
v -5 -44 0
v -5 -43 0
v -4 -43 0
v -3 -44 0
v -4 -44 0
v -4 -43 0
v -3 -43 0
v -1 -44 0
v -2 -44 0
v -2 -43 0
v -1 -43 0
v 0 -44 0
v -1 -44 0
v -1 -43 0
v 0 -43 0
v -49 -45 0
v -50 -45 0
v -50 -44 0
v -49 -44 0
v -30 -45 0
v -31 -45 0
v -31 -44 0
v -30 -44 0
v -9 -45 0
v -10 -45 0
v -10 -44 0
v -9 -44 0
v -1 -45 0
v -2 -45 0
v -2 -44 0
v -1 -44 0
v 0 -45 0
v -1 -45 0
v -1 -44 0
v 0 -44 0
v -49 -46 0
v -50 -46 0
v -50 -45 0
v -49 -45 0
v -39 -46 0
v -40 -46 0
v -40 -45 0
v -39 -45 0
v -5 -46 0
v -6 -46 0
v -6 -45 0
v -5 -45 0
v -4 -46 0
v -5 -46 0
v -5 -45 0
v -4 -45 0
v 0 -46 0
v -1 -46 0
v -1 -45 0
v 0 -45 0
v -49 -47 0
v -50 -47 0
v -50 -46 0
v -49 -46 0
v -46 -47 0
v -47 -47 0
v -47 -46 0
v -46 -46 0
v -33 -47 0
v -34 -47 0
v -34 -46 0
v -33 -46 0
v -25 -47 0
v -26 -47 0
v -26 -46 0
v -25 -46 0
v -20 -47 0
v -21 -47 0
v -21 -46 0
v -20 -46 0
v -2 -47 0
v -3 -47 0
v -3 -46 0
v -2 -46 0
v -1 -47 0
v -2 -47 0
v -2 -46 0
v -1 -46 0
v 0 -47 0
v -1 -47 0
v -1 -46 0
v 0 -46 0
v -49 -48 0
v -50 -48 0
v -50 -47 0
v -49 -47 0
v -42 -48 0
v -43 -48 0
v -43 -47 0
v -42 -47 0
v -12 -48 0
v -13 -48 0
v -13 -47 0
v -12 -47 0
v 0 -48 0
v -1 -48 0
v -1 -47 0
v 0 -47 0
v -49 -49 0
v -50 -49 0
v -50 -48 0
v -49 -48 0
v -5 -49 0
v -6 -49 0
v -6 -48 0
v -5 -48 0
v 0 -49 0
v -1 -49 0
v -1 -48 0
v 0 -48 0
v -49 -50 0
v -50 -50 0
v -50 -49 0
v -49 -49 0
v -48 -50 0
v -49 -50 0
v -49 -49 0
v -48 -49 0
v -47 -50 0
v -48 -50 0
v -48 -49 0
v -47 -49 0
v -46 -50 0
v -47 -50 0
v -47 -49 0
v -46 -49 0
v -45 -50 0
v -46 -50 0
v -46 -49 0
v -45 -49 0
v -44 -50 0
v -45 -50 0
v -45 -49 0
v -44 -49 0
v -43 -50 0
v -44 -50 0
v -44 -49 0
v -43 -49 0
v -42 -50 0
v -43 -50 0
v -43 -49 0
v -42 -49 0
v -41 -50 0
v -42 -50 0
v -42 -49 0
v -41 -49 0
v -40 -50 0
v -41 -50 0
v -41 -49 0
v -40 -49 0
v -39 -50 0
v -40 -50 0
v -40 -49 0
v -39 -49 0
v -38 -50 0
v -39 -50 0
v -39 -49 0
v -38 -49 0
v -37 -50 0
v -38 -50 0
v -38 -49 0
v -37 -49 0
v -36 -50 0
v -37 -50 0
v -37 -49 0
v -36 -49 0
v -35 -50 0
v -36 -50 0
v -36 -49 0
v -35 -49 0
v -34 -50 0
v -35 -50 0
v -35 -49 0
v -34 -49 0
v -33 -50 0
v -34 -50 0
v -34 -49 0
v -33 -49 0
v -32 -50 0
v -33 -50 0
v -33 -49 0
v -32 -49 0
v -31 -50 0
v -32 -50 0
v -32 -49 0
v -31 -49 0
v -30 -50 0
v -31 -50 0
v -31 -49 0
v -30 -49 0
v -29 -50 0
v -30 -50 0
v -30 -49 0
v -29 -49 0
v -28 -50 0
v -29 -50 0
v -29 -49 0
v -28 -49 0
v -27 -50 0
v -28 -50 0
v -28 -49 0
v -27 -49 0
v -26 -50 0
v -27 -50 0
v -27 -49 0
v -26 -49 0
v -25 -50 0
v -26 -50 0
v -26 -49 0
v -25 -49 0
v -24 -50 0
v -25 -50 0
v -25 -49 0
v -24 -49 0
v -23 -50 0
v -24 -50 0
v -24 -49 0
v -23 -49 0
v -22 -50 0
v -23 -50 0
v -23 -49 0
v -22 -49 0
v -21 -50 0
v -22 -50 0
v -22 -49 0
v -21 -49 0
v -20 -50 0
v -21 -50 0
v -21 -49 0
v -20 -49 0
v -19 -50 0
v -20 -50 0
v -20 -49 0
v -19 -49 0
v -18 -50 0
v -19 -50 0
v -19 -49 0
v -18 -49 0
v -17 -50 0
v -18 -50 0
v -18 -49 0
v -17 -49 0
v -16 -50 0
v -17 -50 0
v -17 -49 0
v -16 -49 0
v -15 -50 0
v -16 -50 0
v -16 -49 0
v -15 -49 0
v -14 -50 0
v -15 -50 0
v -15 -49 0
v -14 -49 0
v -13 -50 0
v -14 -50 0
v -14 -49 0
v -13 -49 0
v -12 -50 0
v -13 -50 0
v -13 -49 0
v -12 -49 0
v -11 -50 0
v -12 -50 0
v -12 -49 0
v -11 -49 0
v -10 -50 0
v -11 -50 0
v -11 -49 0
v -10 -49 0
v -9 -50 0
v -10 -50 0
v -10 -49 0
v -9 -49 0
v -8 -50 0
v -9 -50 0
v -9 -49 0
v -8 -49 0
v -7 -50 0
v -8 -50 0
v -8 -49 0
v -7 -49 0
v -6 -50 0
v -7 -50 0
v -7 -49 0
v -6 -49 0
v -5 -50 0
v -6 -50 0
v -6 -49 0
v -5 -49 0
v -4 -50 0
v -5 -50 0
v -5 -49 0
v -4 -49 0
v -3 -50 0
v -4 -50 0
v -4 -49 0
v -3 -49 0
v -2 -50 0
v -3 -50 0
v -3 -49 0
v -2 -49 0
v -1 -50 0
v -2 -50 0
v -2 -49 0
v -1 -49 0
v 0 -50 0
v -1 -50 0
v -1 -49 0
v 0 -49 0

# Texture cooridinates (Count = 39)
vt 0.4 0.84
vt 0.425 0.84
vt 0.425 0.88
vt 0.4 0.88
vt 0.45 0.88
vt 0.475 0.88
vt 0.475 0.92
vt 0.45 0.92
vt 0.425 0.92
vt 0.4 0.92
vt 0.025 0.8
vt 0.05 0.8
vt 0.05 0.84
vt 0.025 0.84
vt 0 0.88
vt 0.025 0.88
vt 0.025 0.92
vt 0 0.92
vt 0.4 0.8
vt 0.425 0.8
vt 0.05 0.96
vt 0.075 0.96
vt 0.075 1
vt 0.05 1
vt 0.45 0.8
vt 0.45 0.84
vt 0.475 0.84
vt 0.075 0.84
vt 0.075 0.88
vt 0.05 0.88
vt 0.3 0.68
vt 0.325 0.68
vt 0.325 0.72
vt 0.3 0.72
vt 0.1 0.68
vt 0.125 0.68
vt 0.125 0.72
vt 0.1 0.72
vt 0.475 0.8

# Normal
vn 0 0 -1

# Mesh description
g HunkerMap3_mesh_0005

# Faces
f 1/1/1 2/2/1 3/3/1 4/4/1
f 5/1/1 6/2/1 7/3/1 8/4/1
f 9/1/1 10/2/1 11/3/1 12/4/1
f 13/1/1 14/2/1 15/3/1 16/4/1
f 17/1/1 18/2/1 19/3/1 20/4/1
f 21/1/1 22/2/1 23/3/1 24/4/1
f 25/1/1 26/2/1 27/3/1 28/4/1
f 29/1/1 30/2/1 31/3/1 32/4/1
f 33/1/1 34/2/1 35/3/1 36/4/1
f 37/5/1 38/6/1 39/7/1 40/8/1
f 41/3/1 42/5/1 43/8/1 44/9/1
f 45/3/1 46/5/1 47/8/1 48/9/1
f 49/3/1 50/5/1 51/8/1 52/9/1
f 53/3/1 54/5/1 55/8/1 56/9/1
f 57/3/1 58/5/1 59/8/1 60/9/1
f 61/3/1 62/5/1 63/8/1 64/9/1
f 65/3/1 66/5/1 67/8/1 68/9/1
f 69/4/1 70/3/1 71/9/1 72/10/1
f 73/1/1 74/2/1 75/3/1 76/4/1
f 77/1/1 78/2/1 79/3/1 80/4/1
f 81/1/1 82/2/1 83/3/1 84/4/1
f 85/1/1 86/2/1 87/3/1 88/4/1
f 89/1/1 90/2/1 91/3/1 92/4/1
f 93/1/1 94/2/1 95/3/1 96/4/1
f 97/1/1 98/2/1 99/3/1 100/4/1
f 101/1/1 102/2/1 103/3/1 104/4/1
f 105/11/1 106/12/1 107/13/1 108/14/1
f 109/1/1 110/2/1 111/3/1 112/4/1
f 113/11/1 114/12/1 115/13/1 116/14/1
f 117/11/1 118/12/1 119/13/1 120/14/1
f 121/1/1 122/2/1 123/3/1 124/4/1
f 125/11/1 126/12/1 127/13/1 128/14/1
f 129/11/1 130/12/1 131/13/1 132/14/1
f 133/11/1 134/12/1 135/13/1 136/14/1
f 137/11/1 138/12/1 139/13/1 140/14/1
f 141/1/1 142/2/1 143/3/1 144/4/1
f 145/11/1 146/12/1 147/13/1 148/14/1
f 149/11/1 150/12/1 151/13/1 152/14/1
f 153/11/1 154/12/1 155/13/1 156/14/1
f 157/11/1 158/12/1 159/13/1 160/14/1
f 161/11/1 162/12/1 163/13/1 164/14/1
f 165/1/1 166/2/1 167/3/1 168/4/1
f 169/11/1 170/12/1 171/13/1 172/14/1
f 173/15/1 174/16/1 175/17/1 176/18/1
f 177/11/1 178/12/1 179/13/1 180/14/1
f 181/11/1 182/12/1 183/13/1 184/14/1
f 185/5/1 186/6/1 187/7/1 188/8/1
f 189/3/1 190/5/1 191/8/1 192/9/1
f 193/3/1 194/5/1 195/8/1 196/9/1
f 197/3/1 198/5/1 199/8/1 200/9/1
f 201/19/1 202/20/1 203/2/1 204/1/1
f 205/21/1 206/22/1 207/23/1 208/24/1
f 209/21/1 210/22/1 211/23/1 212/24/1
f 213/21/1 214/22/1 215/23/1 216/24/1
f 217/21/1 218/22/1 219/23/1 220/24/1
f 221/11/1 222/12/1 223/13/1 224/14/1
f 225/15/1 226/16/1 227/17/1 228/18/1
f 229/11/1 230/12/1 231/13/1 232/14/1
f 233/11/1 234/12/1 235/13/1 236/14/1
f 237/20/1 238/25/1 239/26/1 240/2/1
f 241/3/1 242/5/1 243/8/1 244/9/1
f 245/3/1 246/5/1 247/8/1 248/9/1
f 249/3/1 250/5/1 251/8/1 252/9/1
f 253/4/1 254/3/1 255/9/1 256/10/1
f 257/11/1 258/12/1 259/13/1 260/14/1
f 261/11/1 262/12/1 263/13/1 264/14/1
f 265/11/1 266/12/1 267/13/1 268/14/1
f 269/11/1 270/12/1 271/13/1 272/14/1
f 273/11/1 274/12/1 275/13/1 276/14/1
f 277/1/1 278/2/1 279/3/1 280/4/1
f 281/11/1 282/12/1 283/13/1 284/14/1
f 285/11/1 286/12/1 287/13/1 288/14/1
f 289/11/1 290/12/1 291/13/1 292/14/1
f 293/11/1 294/12/1 295/13/1 296/14/1
f 297/11/1 298/12/1 299/13/1 300/14/1
f 301/11/1 302/12/1 303/13/1 304/14/1
f 305/1/1 306/2/1 307/3/1 308/4/1
f 309/11/1 310/12/1 311/13/1 312/14/1
f 313/11/1 314/12/1 315/13/1 316/14/1
f 317/1/1 318/2/1 319/3/1 320/4/1
f 321/11/1 322/12/1 323/13/1 324/14/1
f 325/1/1 326/2/1 327/3/1 328/4/1
f 329/26/1 330/27/1 331/6/1 332/5/1
f 333/1/1 334/2/1 335/3/1 336/4/1
f 337/26/1 338/27/1 339/6/1 340/5/1
f 341/1/1 342/2/1 343/3/1 344/4/1
f 345/26/1 346/27/1 347/6/1 348/5/1
f 349/13/1 350/28/1 351/29/1 352/30/1
f 353/1/1 354/2/1 355/3/1 356/4/1
f 357/26/1 358/27/1 359/6/1 360/5/1
f 361/13/1 362/28/1 363/29/1 364/30/1
f 365/13/1 366/28/1 367/29/1 368/30/1
f 369/13/1 370/28/1 371/29/1 372/30/1
f 373/13/1 374/28/1 375/29/1 376/30/1
f 377/1/1 378/2/1 379/3/1 380/4/1
f 381/26/1 382/27/1 383/6/1 384/5/1
f 385/13/1 386/28/1 387/29/1 388/30/1
f 389/1/1 390/2/1 391/3/1 392/4/1
f 393/26/1 394/27/1 395/6/1 396/5/1
f 397/13/1 398/28/1 399/29/1 400/30/1
f 401/13/1 402/28/1 403/29/1 404/30/1
f 405/13/1 406/28/1 407/29/1 408/30/1
f 409/13/1 410/28/1 411/29/1 412/30/1
f 413/1/1 414/2/1 415/3/1 416/4/1
f 417/26/1 418/27/1 419/6/1 420/5/1
f 421/13/1 422/28/1 423/29/1 424/30/1
f 425/13/1 426/28/1 427/29/1 428/30/1
f 429/13/1 430/28/1 431/29/1 432/30/1
f 433/1/1 434/2/1 435/3/1 436/4/1
f 437/26/1 438/27/1 439/6/1 440/5/1
f 441/13/1 442/28/1 443/29/1 444/30/1
f 445/13/1 446/28/1 447/29/1 448/30/1
f 449/13/1 450/28/1 451/29/1 452/30/1
f 453/1/1 454/2/1 455/3/1 456/4/1
f 457/26/1 458/27/1 459/6/1 460/5/1
f 461/13/1 462/28/1 463/29/1 464/30/1
f 465/13/1 466/28/1 467/29/1 468/30/1
f 469/13/1 470/28/1 471/29/1 472/30/1
f 473/1/1 474/2/1 475/3/1 476/4/1
f 477/26/1 478/27/1 479/6/1 480/5/1
f 481/13/1 482/28/1 483/29/1 484/30/1
f 485/13/1 486/28/1 487/29/1 488/30/1
f 489/13/1 490/28/1 491/29/1 492/30/1
f 493/13/1 494/28/1 495/29/1 496/30/1
f 497/1/1 498/2/1 499/3/1 500/4/1
f 501/26/1 502/27/1 503/6/1 504/5/1
f 505/13/1 506/28/1 507/29/1 508/30/1
f 509/1/1 510/2/1 511/3/1 512/4/1
f 513/26/1 514/27/1 515/6/1 516/5/1
f 517/13/1 518/28/1 519/29/1 520/30/1
f 521/13/1 522/28/1 523/29/1 524/30/1
f 525/13/1 526/28/1 527/29/1 528/30/1
f 529/13/1 530/28/1 531/29/1 532/30/1
f 533/1/1 534/2/1 535/3/1 536/4/1
f 537/26/1 538/27/1 539/6/1 540/5/1
f 541/13/1 542/28/1 543/29/1 544/30/1
f 545/13/1 546/28/1 547/29/1 548/30/1
f 549/13/1 550/28/1 551/29/1 552/30/1
f 553/13/1 554/28/1 555/29/1 556/30/1
f 557/31/1 558/32/1 559/33/1 560/34/1
f 561/35/1 562/36/1 563/37/1 564/38/1
f 565/31/1 566/32/1 567/33/1 568/34/1
f 569/1/1 570/2/1 571/3/1 572/4/1
f 573/26/1 574/27/1 575/6/1 576/5/1
f 577/13/1 578/28/1 579/29/1 580/30/1
f 581/13/1 582/28/1 583/29/1 584/30/1
f 585/35/1 586/36/1 587/37/1 588/38/1
f 589/1/1 590/2/1 591/3/1 592/4/1
f 593/26/1 594/27/1 595/6/1 596/5/1
f 597/13/1 598/28/1 599/29/1 600/30/1
f 601/31/1 602/32/1 603/33/1 604/34/1
f 605/35/1 606/36/1 607/37/1 608/38/1
f 609/1/1 610/2/1 611/3/1 612/4/1
f 613/26/1 614/27/1 615/6/1 616/5/1
f 617/13/1 618/28/1 619/29/1 620/30/1
f 621/13/1 622/28/1 623/29/1 624/30/1
f 625/13/1 626/28/1 627/29/1 628/30/1
f 629/13/1 630/28/1 631/29/1 632/30/1
f 633/35/1 634/36/1 635/37/1 636/38/1
f 637/31/1 638/32/1 639/33/1 640/34/1
f 641/1/1 642/2/1 643/3/1 644/4/1
f 645/26/1 646/27/1 647/6/1 648/5/1
f 649/13/1 650/28/1 651/29/1 652/30/1
f 653/13/1 654/28/1 655/29/1 656/30/1
f 657/1/1 658/2/1 659/3/1 660/4/1
f 661/26/1 662/27/1 663/6/1 664/5/1
f 665/13/1 666/28/1 667/29/1 668/30/1
f 669/1/1 670/2/1 671/3/1 672/4/1
f 673/25/1 674/39/1 675/27/1 676/26/1
f 677/20/1 678/25/1 679/26/1 680/2/1
f 681/20/1 682/25/1 683/26/1 684/2/1
f 685/20/1 686/25/1 687/26/1 688/2/1
f 689/20/1 690/25/1 691/26/1 692/2/1
f 693/20/1 694/25/1 695/26/1 696/2/1
f 697/20/1 698/25/1 699/26/1 700/2/1
f 701/20/1 702/25/1 703/26/1 704/2/1
f 705/20/1 706/25/1 707/26/1 708/2/1
f 709/20/1 710/25/1 711/26/1 712/2/1
f 713/20/1 714/25/1 715/26/1 716/2/1
f 717/20/1 718/25/1 719/26/1 720/2/1
f 721/20/1 722/25/1 723/26/1 724/2/1
f 725/20/1 726/25/1 727/26/1 728/2/1
f 729/20/1 730/25/1 731/26/1 732/2/1
f 733/20/1 734/25/1 735/26/1 736/2/1
f 737/20/1 738/25/1 739/26/1 740/2/1
f 741/20/1 742/25/1 743/26/1 744/2/1
f 745/20/1 746/25/1 747/26/1 748/2/1
f 749/20/1 750/25/1 751/26/1 752/2/1
f 753/20/1 754/25/1 755/26/1 756/2/1
f 757/20/1 758/25/1 759/26/1 760/2/1
f 761/20/1 762/25/1 763/26/1 764/2/1
f 765/20/1 766/25/1 767/26/1 768/2/1
f 769/20/1 770/25/1 771/26/1 772/2/1
f 773/20/1 774/25/1 775/26/1 776/2/1
f 777/20/1 778/25/1 779/26/1 780/2/1
f 781/20/1 782/25/1 783/26/1 784/2/1
f 785/20/1 786/25/1 787/26/1 788/2/1
f 789/20/1 790/25/1 791/26/1 792/2/1
f 793/20/1 794/25/1 795/26/1 796/2/1
f 797/20/1 798/25/1 799/26/1 800/2/1
f 801/20/1 802/25/1 803/26/1 804/2/1
f 805/20/1 806/25/1 807/26/1 808/2/1
f 809/20/1 810/25/1 811/26/1 812/2/1
f 813/20/1 814/25/1 815/26/1 816/2/1
f 817/20/1 818/25/1 819/26/1 820/2/1
f 821/20/1 822/25/1 823/26/1 824/2/1
f 825/20/1 826/25/1 827/26/1 828/2/1
f 829/20/1 830/25/1 831/26/1 832/2/1
f 833/20/1 834/25/1 835/26/1 836/2/1
f 837/20/1 838/25/1 839/26/1 840/2/1
f 841/20/1 842/25/1 843/26/1 844/2/1
f 845/20/1 846/25/1 847/26/1 848/2/1
f 849/20/1 850/25/1 851/26/1 852/2/1
f 853/20/1 854/25/1 855/26/1 856/2/1
f 857/20/1 858/25/1 859/26/1 860/2/1
f 861/20/1 862/25/1 863/26/1 864/2/1
f 865/20/1 866/25/1 867/26/1 868/2/1
f 869/19/1 870/20/1 871/2/1 872/1/1

